<svg width="20" height="20" viewBox="0 0 20 20" fill="none" xmlns="http://www.w3.org/2000/svg">
<rect x="0.501892" y="0.4981" width="19" height="19" fill="white" fill-opacity="0.01"/>
<path fill-rule="evenodd" clip-rule="evenodd" d="M12.8044 2.72494C12.5394 2.98994 12.5394 3.41959 12.8044 3.68459L14.1333 5.01347H7.06211C5.31321 5.01347 3.89545 6.43124 3.89545 8.18014V9.42418C3.89545 9.79895 4.19925 10.1028 4.57402 10.1028C4.94878 10.1028 5.25259 9.79895 5.25259 9.42418V8.18014C5.25259 7.18077 6.06274 6.37061 7.06211 6.37061H14.1349L12.8044 7.70113C12.5394 7.96613 12.5394 8.39578 12.8044 8.66078C13.0694 8.92578 13.4991 8.92578 13.7641 8.66078L16.2522 6.17268C16.5172 5.90768 16.5172 5.47803 16.2522 5.21304L13.7641 2.72494C13.4991 2.45994 13.0694 2.45994 12.8044 2.72494ZM7.54194 16.4133C7.80693 16.6783 7.80693 17.1079 7.54194 17.3729C7.27694 17.6379 6.84729 17.6379 6.58229 17.3729L4.0942 14.8848C3.9607 14.7513 3.89445 14.576 3.89546 14.4011C3.89545 14.3997 3.89545 14.3983 3.89545 14.3968C3.89545 14.1775 3.99948 13.9825 4.16089 13.8585L6.58229 11.4371C6.84729 11.1721 7.27694 11.1721 7.54194 11.4371C7.80693 11.7021 7.80693 12.1317 7.54194 12.3967L6.22039 13.7183H13.2823C14.2817 13.7183 15.0919 12.9081 15.0919 11.9087V10.6647C15.0919 10.2899 15.3957 9.98613 15.7704 9.98613C16.1452 9.98613 16.449 10.2899 16.449 10.6647V11.9087C16.449 13.6576 15.0313 15.0754 13.2823 15.0754H6.20408L7.54194 16.4133Z" fill="#F8F8F8"/>
<mask id="mask0_34_29" style="mask-type:alpha" maskUnits="userSpaceOnUse" x="3" y="2" width="14" height="16">
<path fill-rule="evenodd" clip-rule="evenodd" d="M12.8044 2.72494C12.5394 2.98994 12.5394 3.41959 12.8044 3.68459L14.1333 5.01347H7.06211C5.31321 5.01347 3.89545 6.43124 3.89545 8.18014V9.42418C3.89545 9.79895 4.19925 10.1028 4.57402 10.1028C4.94878 10.1028 5.25259 9.79895 5.25259 9.42418V8.18014C5.25259 7.18077 6.06274 6.37061 7.06211 6.37061H14.1349L12.8044 7.70113C12.5394 7.96613 12.5394 8.39578 12.8044 8.66078C13.0694 8.92578 13.4991 8.92578 13.7641 8.66078L16.2522 6.17268C16.5172 5.90768 16.5172 5.47803 16.2522 5.21304L13.7641 2.72494C13.4991 2.45994 13.0694 2.45994 12.8044 2.72494ZM7.54194 16.4133C7.80693 16.6783 7.80693 17.1079 7.54194 17.3729C7.27694 17.6379 6.84729 17.6379 6.58229 17.3729L4.0942 14.8848C3.9607 14.7513 3.89445 14.576 3.89546 14.4011C3.89545 14.3997 3.89545 14.3983 3.89545 14.3968C3.89545 14.1775 3.99948 13.9825 4.16089 13.8585L6.58229 11.4371C6.84729 11.1721 7.27694 11.1721 7.54194 11.4371C7.80693 11.7021 7.80693 12.1317 7.54194 12.3967L6.22039 13.7183H13.2823C14.2817 13.7183 15.0919 12.9081 15.0919 11.9087V10.6647C15.0919 10.2899 15.3957 9.98613 15.7704 9.98613C16.1452 9.98613 16.449 10.2899 16.449 10.6647V11.9087C16.449 13.6576 15.0313 15.0754 13.2823 15.0754H6.20408L7.54194 16.4133Z" fill="white"/>
</mask>
<g mask="url(#mask0_34_29)">
<rect x="0.501831" y="0.498146" width="19" height="19" fill="#101010"/>
</g>
</svg>
