<svg width="20" height="20" viewBox="0 0 20 20" fill="none" xmlns="http://www.w3.org/2000/svg">
<rect x="0.498108" y="0.4981" width="19" height="19" fill="white" fill-opacity="0.01"/>
<path fill-rule="evenodd" clip-rule="evenodd" d="M12.9069 4.09433C12.6419 4.35933 12.6419 4.78898 12.9069 5.05398L15.1378 7.28491H8.64109C6.76726 7.28491 5.24823 8.80394 5.24823 10.6778V15.4278C5.24823 15.8025 5.55204 16.1063 5.9268 16.1063C6.30157 16.1063 6.60537 15.8025 6.60537 15.4278V10.6778C6.60537 9.55347 7.51679 8.64205 8.64109 8.64205H15.1449L12.9069 10.88C12.6419 11.145 12.6419 11.5747 12.9069 11.8397C13.1719 12.1047 13.6016 12.1047 13.8666 11.8397L17.2435 8.46277C17.3781 8.33877 17.4625 8.16098 17.4625 7.96348C17.4625 7.74471 17.359 7.55012 17.1983 7.42603L13.8666 4.09433C13.6016 3.82933 13.1719 3.82933 12.9069 4.09433Z" fill="#F8F8F8"/>
<mask id="mask0_34_47" style="mask-type:alpha" maskUnits="userSpaceOnUse" x="5" y="3" width="13" height="14">
<path fill-rule="evenodd" clip-rule="evenodd" d="M12.9069 4.09433C12.6419 4.35933 12.6419 4.78898 12.9069 5.05398L15.1378 7.28491H8.64109C6.76726 7.28491 5.24823 8.80394 5.24823 10.6778V15.4278C5.24823 15.8025 5.55204 16.1063 5.9268 16.1063C6.30157 16.1063 6.60537 15.8025 6.60537 15.4278V10.6778C6.60537 9.55347 7.51679 8.64205 8.64109 8.64205H15.1449L12.9069 10.88C12.6419 11.145 12.6419 11.5747 12.9069 11.8397C13.1719 12.1047 13.6016 12.1047 13.8666 11.8397L17.2435 8.46277C17.3781 8.33877 17.4625 8.16098 17.4625 7.96348C17.4625 7.74471 17.359 7.55012 17.1983 7.42603L13.8666 4.09433C13.6016 3.82933 13.1719 3.82933 12.9069 4.09433Z" fill="white"/>
</mask>
<g mask="url(#mask0_34_47)">
<rect x="0.497925" y="0.49791" width="19" height="19" fill="#101010"/>
</g>
</svg>
