<svg width="14" height="14" viewBox="0 0 14 14" fill="none" xmlns="http://www.w3.org/2000/svg">
<path fill-rule="evenodd" clip-rule="evenodd" d="M7.00569 0.220207C6.63093 0.220207 6.32712 0.524013 6.32712 0.898778V6.33088H0.896101C0.521337 6.33088 0.217529 6.63469 0.217529 7.00946C0.217529 7.38422 0.521336 7.68803 0.8961 7.68803H6.32712V13.1131C6.32712 13.4878 6.63093 13.7916 7.00569 13.7916C7.38046 13.7916 7.68426 13.4878 7.68426 13.1131V7.68803H13.1104C13.4852 7.68803 13.789 7.38422 13.789 7.00946C13.789 6.63469 13.4852 6.33088 13.1104 6.33088H7.68426V0.898779C7.68426 0.524014 7.38046 0.220207 7.00569 0.220207Z" fill="#101010"/>
</svg>
