<svg width="20" height="20" viewBox="0 0 20 20" fill="none" xmlns="http://www.w3.org/2000/svg">
<rect x="0.501892" y="0.4981" width="19" height="19" fill="white" fill-opacity="0.01"/>
<path fill-rule="evenodd" clip-rule="evenodd" d="M10.0009 16.1099C10.3757 16.1099 10.6795 15.8061 10.6795 15.4313V6.20965L13.5953 9.12541C13.8603 9.39041 14.2899 9.39041 14.5549 9.12541C14.8199 8.86041 14.8199 8.43076 14.5549 8.16576L10.4835 4.09433C10.3506 3.96149 10.1764 3.89524 10.0023 3.89559C10.0019 3.89558 10.0014 3.89558 10.0009 3.89558C9.79513 3.89558 9.61072 3.98721 9.48628 4.13189L5.45241 8.16576C5.18741 8.43076 5.18741 8.86041 5.45241 9.12541C5.71741 9.39041 6.14706 9.39041 6.41206 9.12541L9.32237 6.21509V15.4313C9.32237 15.8061 9.62618 16.1099 10.0009 16.1099Z" fill="#101010"/>
<mask id="mask0_34_59" style="mask-type:alpha" maskUnits="userSpaceOnUse" x="5" y="3" width="10" height="14">
<path fill-rule="evenodd" clip-rule="evenodd" d="M10.0009 16.1099C10.3757 16.1099 10.6795 15.8061 10.6795 15.4313V6.20965L13.5953 9.12541C13.8603 9.39041 14.2899 9.39041 14.5549 9.12541C14.8199 8.86041 14.8199 8.43076 14.5549 8.16576L10.4835 4.09433C10.3506 3.96149 10.1764 3.89524 10.0023 3.89559C10.0019 3.89558 10.0014 3.89558 10.0009 3.89558C9.79513 3.89558 9.61072 3.98721 9.48628 4.13189L5.45241 8.16576C5.18741 8.43076 5.18741 8.86041 5.45241 9.12541C5.71741 9.39041 6.14706 9.39041 6.41206 9.12541L9.32237 6.21509V15.4313C9.32237 15.8061 9.62618 16.1099 10.0009 16.1099Z" fill="white"/>
</mask>
<g mask="url(#mask0_34_59)">
<rect x="0.501831" y="0.498146" width="19" height="19" fill="#101010"/>
</g>
</svg>
