<svg width="22" height="22" viewBox="0 0 22 22" fill="none" xmlns="http://www.w3.org/2000/svg">
<path d="M10.792 10.719C11.215 10.3454 11.5542 9.88335 11.7868 9.3642C12.0193 8.84504 12.1397 8.28093 12.1396 7.71013C12.1396 6.63757 11.722 5.60893 10.9787 4.85051C10.2354 4.09209 9.22717 3.66602 8.17593 3.66602C7.12469 3.66602 6.1165 4.09209 5.37316 4.85051C4.62982 5.60893 4.21221 6.63757 4.21221 7.71013C4.21221 8.28093 4.33255 8.84504 4.56508 9.3642C4.79761 9.88335 5.13689 10.3454 5.55988 10.719C4.45015 11.2317 3.50863 12.0596 2.84789 13.1038C2.18715 14.148 1.83515 15.3643 1.83398 16.6072C1.83398 16.8217 1.91751 17.0274 2.06617 17.1791C2.21484 17.3308 2.41648 17.416 2.62673 17.416C2.83698 17.416 3.03861 17.3308 3.18728 17.1791C3.33595 17.0274 3.41947 16.8217 3.41947 16.6072C3.41947 15.3201 3.9206 14.0857 4.81261 13.1756C5.70461 12.2655 6.91444 11.7543 8.17593 11.7543C9.43742 11.7543 10.6472 12.2655 11.5393 13.1756C12.4313 14.0857 12.9324 15.3201 12.9324 16.6072C12.9324 16.8217 13.0159 17.0274 13.1646 17.1791C13.3132 17.3308 13.5149 17.416 13.7251 17.416C13.9354 17.416 14.137 17.3308 14.2857 17.1791C14.4344 17.0274 14.5179 16.8217 14.5179 16.6072C14.5167 15.3643 14.1647 14.148 13.504 13.1038C12.8432 12.0596 11.9017 11.2317 10.792 10.719ZM8.17593 10.1366C7.70556 10.1366 7.24575 9.99429 6.85466 9.72767C6.46356 9.46105 6.15873 9.08208 5.97873 8.6387C5.79873 8.19532 5.75163 7.70744 5.8434 7.23675C5.93516 6.76606 6.16167 6.33371 6.49427 5.99436C6.82687 5.65501 7.25063 5.42391 7.71196 5.33029C8.17329 5.23666 8.65147 5.28471 9.08604 5.46837C9.5206 5.65202 9.89203 5.96303 10.1534 6.36206C10.4147 6.76109 10.5542 7.23022 10.5542 7.71013C10.5542 8.35367 10.3036 8.97086 9.85759 9.42591C9.41159 9.88096 8.80668 10.1366 8.17593 10.1366ZM15.8972 10.3954C16.4046 9.81253 16.736 9.09246 16.8516 8.32188C16.9671 7.5513 16.862 6.76306 16.5487 6.05205C16.2354 5.34103 15.7274 4.73754 15.0859 4.31423C14.4443 3.89091 13.6964 3.66581 12.9324 3.66602C12.7221 3.66602 12.5205 3.75123 12.3718 3.90291C12.2232 4.0546 12.1396 4.26033 12.1396 4.47484C12.1396 4.68935 12.2232 4.89508 12.3718 5.04676C12.5205 5.19845 12.7221 5.28366 12.9324 5.28366C13.5631 5.28366 14.168 5.53931 14.6141 5.99436C15.0601 6.44941 15.3106 7.06659 15.3106 7.71013C15.3095 8.13496 15.1991 8.55204 14.9904 8.91967C14.7817 9.28729 14.4821 9.59257 14.1215 9.80499C14.004 9.87416 13.9058 9.97295 13.8364 10.0919C13.767 10.2109 13.7287 10.346 13.7251 10.4844C13.7218 10.6217 13.7528 10.7576 13.8152 10.8793C13.8776 11.001 13.9694 11.1045 14.0819 11.18L14.391 11.3903L14.4941 11.4469C15.4497 11.9093 16.2558 12.6407 16.8176 13.5549C17.3794 14.4692 17.6734 15.5282 17.6651 16.6072C17.6651 16.8217 17.7486 17.0274 17.8973 17.1791C18.0459 17.3308 18.2476 17.416 18.4578 17.416C18.6681 17.416 18.8697 17.3308 19.0184 17.1791C19.167 17.0274 19.2506 16.8217 19.2506 16.6072C19.257 15.366 18.9523 14.1437 18.3654 13.0565C17.7785 11.9693 16.9289 11.0533 15.8972 10.3954Z" fill="#A3A3A3"/>
</svg>
