<svg width="20" height="18" viewBox="0 0 20 18" fill="none" xmlns="http://www.w3.org/2000/svg">
<path d="M16.4173 3.95768H13.6673V3.04102C13.6673 2.31167 13.3776 1.6122 12.8619 1.09647C12.3461 0.580747 11.6467 0.291016 10.9173 0.291016H9.08398C8.35464 0.291016 7.65517 0.580747 7.13944 1.09647C6.62371 1.6122 6.33398 2.31167 6.33398 3.04102V3.95768H3.58398C2.85464 3.95768 2.15517 4.24741 1.63944 4.76314C1.12372 5.27886 0.833984 5.97834 0.833984 6.70768V14.9577C0.833984 15.687 1.12372 16.3865 1.63944 16.9022C2.15517 17.418 2.85464 17.7077 3.58398 17.7077H16.4173C17.1467 17.7077 17.8461 17.418 18.3619 16.9022C18.8776 16.3865 19.1673 15.687 19.1673 14.9577V6.70768C19.1673 5.97834 18.8776 5.27886 18.3619 4.76314C17.8461 4.24741 17.1467 3.95768 16.4173 3.95768ZM8.16732 3.04102C8.16732 2.7979 8.26389 2.56474 8.4358 2.39283C8.60771 2.22093 8.84087 2.12435 9.08398 2.12435H10.9173C11.1604 2.12435 11.3936 2.22093 11.5655 2.39283C11.7374 2.56474 11.834 2.7979 11.834 3.04102V3.95768H8.16732V3.04102ZM17.334 14.9577C17.334 15.2008 17.2374 15.434 17.0655 15.6059C16.8936 15.7778 16.6604 15.8744 16.4173 15.8744H3.58398C3.34087 15.8744 3.10771 15.7778 2.9358 15.6059C2.76389 15.434 2.66732 15.2008 2.66732 14.9577V10.3285H5.41732V11.291C5.41732 11.5341 5.51389 11.7673 5.6858 11.9392C5.85771 12.1111 6.09087 12.2077 6.33398 12.2077C6.5771 12.2077 6.81026 12.1111 6.98217 11.9392C7.15407 11.7673 7.25065 11.5341 7.25065 11.291V10.3285H12.7507V11.291C12.7507 11.5341 12.8472 11.7673 13.0191 11.9392C13.191 12.1111 13.4242 12.2077 13.6673 12.2077C13.9104 12.2077 14.1436 12.1111 14.3155 11.9392C14.4874 11.7673 14.584 11.5341 14.584 11.291V10.3285H17.334V14.9577ZM17.334 8.54102H2.66732V6.70768C2.66732 6.46457 2.76389 6.23141 2.9358 6.0595C3.10771 5.88759 3.34087 5.79102 3.58398 5.79102H16.4173C16.6604 5.79102 16.8936 5.88759 17.0655 6.0595C17.2374 6.23141 17.334 6.46457 17.334 6.70768V8.54102Z" fill="#A3A3A3"/>
</svg>
