<svg width="16" height="20" viewBox="0 0 16 20" fill="none" xmlns="http://www.w3.org/2000/svg">
<path d="M14.416 5.41732H11.666V4.50065C11.666 3.52819 11.2797 2.59556 10.5921 1.90793C9.90444 1.22029 8.97181 0.833984 7.99935 0.833984C7.02689 0.833984 6.09426 1.22029 5.40662 1.90793C4.71899 2.59556 4.33268 3.52819 4.33268 4.50065V5.41732H1.58268C1.33957 5.41732 1.10641 5.51389 0.934501 5.6858C0.762593 5.85771 0.666016 6.09087 0.666016 6.33398V16.4173C0.666016 17.1467 0.955747 17.8461 1.47147 18.3619C1.9872 18.8776 2.68667 19.1673 3.41602 19.1673H12.5827C13.312 19.1673 14.0115 18.8776 14.5272 18.3619C15.043 17.8461 15.3327 17.1467 15.3327 16.4173V6.33398C15.3327 6.09087 15.2361 5.85771 15.0642 5.6858C14.8923 5.51389 14.6591 5.41732 14.416 5.41732ZM6.16602 4.50065C6.16602 4.01442 6.35917 3.54811 6.70299 3.20429C7.0468 2.86047 7.51312 2.66732 7.99935 2.66732C8.48558 2.66732 8.95189 2.86047 9.29571 3.20429C9.63953 3.54811 9.83268 4.01442 9.83268 4.50065V5.41732H6.16602V4.50065ZM13.4993 16.4173C13.4993 16.6604 13.4028 16.8936 13.2309 17.0655C13.059 17.2374 12.8258 17.334 12.5827 17.334H3.41602C3.1729 17.334 2.93974 17.2374 2.76783 17.0655C2.59593 16.8936 2.49935 16.6604 2.49935 16.4173V7.25065H4.33268V8.16732C4.33268 8.41043 4.42926 8.64359 4.60117 8.8155C4.77308 8.98741 5.00623 9.08398 5.24935 9.08398C5.49246 9.08398 5.72562 8.98741 5.89753 8.8155C6.06944 8.64359 6.16602 8.41043 6.16602 8.16732V7.25065H9.83268V8.16732C9.83268 8.41043 9.92926 8.64359 10.1012 8.8155C10.2731 8.98741 10.5062 9.08398 10.7493 9.08398C10.9925 9.08398 11.2256 8.98741 11.3975 8.8155C11.5694 8.64359 11.666 8.41043 11.666 8.16732V7.25065H13.4993V16.4173Z" fill="#A3A3A3"/>
</svg>
