<svg width="20" height="12" viewBox="0 0 20 12" fill="none" xmlns="http://www.w3.org/2000/svg">
<path d="M10.9173 9.66667H1.75065C1.50754 9.66667 1.27438 9.76324 1.10247 9.93515C0.930561 10.1071 0.833984 10.3402 0.833984 10.5833C0.833984 10.8264 0.930561 11.0596 1.10247 11.2315C1.27438 11.4034 1.50754 11.5 1.75065 11.5H10.9173C11.1604 11.5 11.3936 11.4034 11.5655 11.2315C11.7374 11.0596 11.834 10.8264 11.834 10.5833C11.834 10.3402 11.7374 10.1071 11.5655 9.93515C11.3936 9.76324 11.1604 9.66667 10.9173 9.66667ZM1.75065 2.33333H18.2507C18.4938 2.33333 18.7269 2.23676 18.8988 2.06485C19.0707 1.89294 19.1673 1.65978 19.1673 1.41667C19.1673 1.17355 19.0707 0.940394 18.8988 0.768486C18.7269 0.596577 18.4938 0.5 18.2507 0.5H1.75065C1.50754 0.5 1.27438 0.596577 1.10247 0.768486C0.930561 0.940394 0.833984 1.17355 0.833984 1.41667C0.833984 1.65978 0.930561 1.89294 1.10247 2.06485C1.27438 2.23676 1.50754 2.33333 1.75065 2.33333ZM18.2507 5.08333H1.75065C1.50754 5.08333 1.27438 5.17991 1.10247 5.35182C0.930561 5.52373 0.833984 5.75689 0.833984 6C0.833984 6.24312 0.930561 6.47627 1.10247 6.64818C1.27438 6.82009 1.50754 6.91667 1.75065 6.91667H18.2507C18.4938 6.91667 18.7269 6.82009 18.8988 6.64818C19.0707 6.47627 19.1673 6.24312 19.1673 6C19.1673 5.75689 19.0707 5.52373 18.8988 5.35182C18.7269 5.17991 18.4938 5.08333 18.2507 5.08333Z" fill="#A3A3A3"/>
</svg>
