<svg width="22" height="22" viewBox="0 0 22 22" fill="none" xmlns="http://www.w3.org/2000/svg">
<path d="M10.9993 12.834C10.7562 12.834 10.5231 12.9306 10.3512 13.1025C10.1793 13.2744 10.0827 13.5075 10.0827 13.7507V15.584C10.0827 15.8271 10.1793 16.0603 10.3512 16.2322C10.5231 16.4041 10.7562 16.5007 10.9993 16.5007C11.2425 16.5007 11.4756 16.4041 11.6475 16.2322C11.8194 16.0603 11.916 15.8271 11.916 15.584V13.7507C11.916 13.5075 11.8194 13.2744 11.6475 13.1025C11.4756 12.9306 11.2425 12.834 10.9993 12.834ZM11.3477 10.1573C11.1817 10.0804 10.9966 10.0548 10.816 10.084L10.651 10.139L10.486 10.2215L10.3485 10.3315C10.2613 10.4193 10.1928 10.5239 10.1471 10.6389C10.1015 10.7539 10.0795 10.8769 10.0827 11.0007C10.082 11.1213 10.1051 11.2409 10.1507 11.3526C10.1963 11.4642 10.2636 11.5658 10.3485 11.6515C10.4357 11.7349 10.5385 11.8004 10.651 11.844C10.7598 11.8953 10.8791 11.9204 10.9993 11.9173C11.12 11.918 11.2396 11.8949 11.3513 11.8493C11.4629 11.8037 11.5645 11.7364 11.6502 11.6515C11.7351 11.5658 11.8024 11.4642 11.848 11.3526C11.8936 11.2409 11.9167 11.1213 11.916 11.0007C11.9167 10.88 11.8936 10.7604 11.848 10.6487C11.8024 10.5371 11.7351 10.4355 11.6502 10.3498C11.5611 10.2688 11.4588 10.2037 11.3477 10.1573ZM18.3327 8.19565C18.3231 8.11144 18.3047 8.02848 18.2777 7.94815V7.86565C18.2336 7.7714 18.1748 7.68476 18.1035 7.60898L12.6035 2.10898C12.5277 2.03768 12.4411 1.97889 12.3468 1.93482H12.2552C12.166 1.88715 12.0703 1.85316 11.971 1.83398H6.41602C5.68667 1.83398 4.9872 2.12372 4.47147 2.63944C3.95575 3.15517 3.66602 3.85464 3.66602 4.58398V17.4173C3.66602 18.1467 3.95575 18.8461 4.47147 19.3619C4.9872 19.8776 5.68667 20.1673 6.41602 20.1673H15.5827C16.312 20.1673 17.0115 19.8776 17.5272 19.3619C18.043 18.8461 18.3327 18.1467 18.3327 17.4173V8.25065C18.3327 8.25065 18.3327 8.25065 18.3327 8.19565ZM12.8327 4.95982L15.2068 7.33398H13.7493C13.5062 7.33398 13.2731 7.23741 13.1012 7.0655C12.9293 6.89359 12.8327 6.66043 12.8327 6.41732V4.95982ZM16.4993 17.4173C16.4993 17.6604 16.4028 17.8936 16.2309 18.0655C16.059 18.2374 15.8258 18.334 15.5827 18.334H6.41602C6.1729 18.334 5.93974 18.2374 5.76783 18.0655C5.59593 17.8936 5.49935 17.6604 5.49935 17.4173V4.58398C5.49935 4.34087 5.59593 4.10771 5.76783 3.9358C5.93974 3.76389 6.1729 3.66732 6.41602 3.66732H10.9993V6.41732C10.9993 7.14666 11.2891 7.84614 11.8048 8.36186C12.3205 8.87759 13.02 9.16732 13.7493 9.16732H16.4993V17.4173Z" fill="#225AD6"/>
</svg>
