<svg width="22" height="22" viewBox="0 0 22 22" fill="none" xmlns="http://www.w3.org/2000/svg">
<g clip-path="url(#clip0_70_7019)">
<path d="M11.0007 20.1673C16.0633 20.1673 20.1673 16.0633 20.1673 11.0007C20.1673 5.93804 16.0633 1.83398 11.0007 1.83398C5.93804 1.83398 1.83398 5.93804 1.83398 11.0007C1.83398 16.0633 5.93804 20.1673 11.0007 20.1673Z" stroke="#A3A3A3" stroke-width="2" stroke-linecap="round" stroke-linejoin="round"/>
<path d="M11 16.5C14.0376 16.5 16.5 14.0376 16.5 11C16.5 7.96243 14.0376 5.5 11 5.5C7.96243 5.5 5.5 7.96243 5.5 11C5.5 14.0376 7.96243 16.5 11 16.5Z" stroke="#A3A3A3" stroke-width="2" stroke-linecap="round" stroke-linejoin="round"/>
<path d="M10.9993 12.8327C12.0119 12.8327 12.8327 12.0119 12.8327 10.9993C12.8327 9.98683 12.0119 9.16602 10.9993 9.16602C9.98683 9.16602 9.16602 9.98683 9.16602 10.9993C9.16602 12.0119 9.98683 12.8327 10.9993 12.8327Z" stroke="#A3A3A3" stroke-width="2" stroke-linecap="round" stroke-linejoin="round"/>
</g>
<defs>
<clipPath id="clip0_70_7019">
<rect width="22" height="22" fill="white"/>
</clipPath>
</defs>
</svg>
