<svg width="18" height="20" viewBox="0 0 18 20" fill="none" xmlns="http://www.w3.org/2000/svg">
<path d="M12.6667 11.834H5.33333C5.09022 11.834 4.85706 11.9306 4.68515 12.1025C4.51324 12.2744 4.41667 12.5075 4.41667 12.7507C4.41667 12.9938 4.51324 13.2269 4.68515 13.3988C4.85706 13.5707 5.09022 13.6673 5.33333 13.6673H12.6667C12.9098 13.6673 13.1429 13.5707 13.3148 13.3988C13.4868 13.2269 13.5833 12.9938 13.5833 12.7507C13.5833 12.5075 13.4868 12.2744 13.3148 12.1025C13.1429 11.9306 12.9098 11.834 12.6667 11.834ZM12.6667 8.16732H7.16667C6.92355 8.16732 6.69039 8.26389 6.51849 8.4358C6.34658 8.60771 6.25 8.84087 6.25 9.08398C6.25 9.3271 6.34658 9.56026 6.51849 9.73217C6.69039 9.90407 6.92355 10.0007 7.16667 10.0007H12.6667C12.9098 10.0007 13.1429 9.90407 13.3148 9.73217C13.4868 9.56026 13.5833 9.3271 13.5833 9.08398C13.5833 8.84087 13.4868 8.60771 13.3148 8.4358C13.1429 8.26389 12.9098 8.16732 12.6667 8.16732ZM16.3333 2.66732H13.5833V1.75065C13.5833 1.50754 13.4868 1.27438 13.3148 1.10247C13.1429 0.930561 12.9098 0.833984 12.6667 0.833984C12.4236 0.833984 12.1904 0.930561 12.0185 1.10247C11.8466 1.27438 11.75 1.50754 11.75 1.75065V2.66732H9.91667V1.75065C9.91667 1.50754 9.82009 1.27438 9.64818 1.10247C9.47627 0.930561 9.24312 0.833984 9 0.833984C8.75688 0.833984 8.52373 0.930561 8.35182 1.10247C8.17991 1.27438 8.08333 1.50754 8.08333 1.75065V2.66732H6.25V1.75065C6.25 1.50754 6.15342 1.27438 5.98151 1.10247C5.80961 0.930561 5.57645 0.833984 5.33333 0.833984C5.09022 0.833984 4.85706 0.930561 4.68515 1.10247C4.51324 1.27438 4.41667 1.50754 4.41667 1.75065V2.66732H1.66667C1.42355 2.66732 1.19039 2.76389 1.01849 2.9358C0.846577 3.10771 0.75 3.34087 0.75 3.58398V16.4173C0.75 17.1467 1.03973 17.8461 1.55546 18.3619C2.07118 18.8776 2.77065 19.1673 3.5 19.1673H14.5C15.2293 19.1673 15.9288 18.8776 16.4445 18.3619C16.9603 17.8461 17.25 17.1467 17.25 16.4173V3.58398C17.25 3.34087 17.1534 3.10771 16.9815 2.9358C16.8096 2.76389 16.5764 2.66732 16.3333 2.66732ZM15.4167 16.4173C15.4167 16.6604 15.3201 16.8936 15.1482 17.0655C14.9763 17.2374 14.7431 17.334 14.5 17.334H3.5C3.25688 17.334 3.02373 17.2374 2.85182 17.0655C2.67991 16.8936 2.58333 16.6604 2.58333 16.4173V4.50065H4.41667V5.41732C4.41667 5.66043 4.51324 5.89359 4.68515 6.0655C4.85706 6.23741 5.09022 6.33398 5.33333 6.33398C5.57645 6.33398 5.80961 6.23741 5.98151 6.0655C6.15342 5.89359 6.25 5.66043 6.25 5.41732V4.50065H8.08333V5.41732C8.08333 5.66043 8.17991 5.89359 8.35182 6.0655C8.52373 6.23741 8.75688 6.33398 9 6.33398C9.24312 6.33398 9.47627 6.23741 9.64818 6.0655C9.82009 5.89359 9.91667 5.66043 9.91667 5.41732V4.50065H11.75V5.41732C11.75 5.66043 11.8466 5.89359 12.0185 6.0655C12.1904 6.23741 12.4236 6.33398 12.6667 6.33398C12.9098 6.33398 13.1429 6.23741 13.3148 6.0655C13.4868 5.89359 13.5833 5.66043 13.5833 5.41732V4.50065H15.4167V16.4173Z" fill="#A3A3A3"/>
</svg>
