<svg width="21" height="21" viewBox="0 0 21 21" fill="none" xmlns="http://www.w3.org/2000/svg">
<path d="M15.75 11.5325V8.75C15.7487 7.51023 15.3088 6.31091 14.508 5.36443C13.7073 4.41795 12.5974 3.78538 11.375 3.57875V2.625C11.375 2.39294 11.2828 2.17038 11.1187 2.00628C10.9546 1.84219 10.7321 1.75 10.5 1.75C10.2679 1.75 10.0454 1.84219 9.88128 2.00628C9.71719 2.17038 9.625 2.39294 9.625 2.625V3.57875C8.40257 3.78538 7.29271 4.41795 6.49196 5.36443C5.69122 6.31091 5.25126 7.51023 5.25 8.75V11.5325C4.73939 11.713 4.29712 12.0471 3.98382 12.4888C3.67052 12.9306 3.50152 13.4584 3.5 14V15.75C3.5 15.9821 3.59219 16.2046 3.75628 16.3687C3.92038 16.5328 4.14294 16.625 4.375 16.625H7.1225C7.324 17.3664 7.76388 18.021 8.37427 18.4876C8.98467 18.9543 9.73166 19.2071 10.5 19.2071C11.2683 19.2071 12.0153 18.9543 12.6257 18.4876C13.2361 18.021 13.676 17.3664 13.8775 16.625H16.625C16.8571 16.625 17.0796 16.5328 17.2437 16.3687C17.4078 16.2046 17.5 15.9821 17.5 15.75V14C17.4985 13.4584 17.3295 12.9306 17.0162 12.4888C16.7029 12.0471 16.2606 11.713 15.75 11.5325ZM7 8.75C7 7.82174 7.36875 6.9315 8.02513 6.27513C8.6815 5.61875 9.57174 5.25 10.5 5.25C11.4283 5.25 12.3185 5.61875 12.9749 6.27513C13.6313 6.9315 14 7.82174 14 8.75V11.375H7V8.75ZM10.5 17.5C10.1946 17.4982 9.895 17.4164 9.63098 17.2629C9.36695 17.1094 9.1477 16.8895 8.995 16.625H12.005C11.8523 16.8895 11.633 17.1094 11.369 17.2629C11.105 17.4164 10.8054 17.4982 10.5 17.5ZM15.75 14.875H5.25V14C5.25 13.7679 5.34219 13.5454 5.50628 13.3813C5.67038 13.2172 5.89294 13.125 6.125 13.125H14.875C15.1071 13.125 15.3296 13.2172 15.4937 13.3813C15.6578 13.5454 15.75 13.7679 15.75 14V14.875Z" fill="black"/>
</svg>
