<svg width="22" height="22" viewBox="0 0 22 22" fill="none" xmlns="http://www.w3.org/2000/svg">
<path d="M11 12.8333C10.7569 12.8333 10.5237 12.9299 10.3518 13.1018C10.1799 13.2737 10.0833 13.5069 10.0833 13.75V15.5833C10.0833 15.8265 10.1799 16.0596 10.3518 16.2315C10.5237 16.4034 10.7569 16.5 11 16.5C11.2431 16.5 11.4763 16.4034 11.6482 16.2315C11.8201 16.0596 11.9167 15.8265 11.9167 15.5833V13.75C11.9167 13.5069 11.8201 13.2737 11.6482 13.1018C11.4763 12.9299 11.2431 12.8333 11 12.8333ZM11.3483 10.1567C11.1824 10.0797 10.9972 10.0542 10.8167 10.0833L10.6517 10.1383L10.4867 10.2208L10.3492 10.3308C10.262 10.4187 10.1935 10.5232 10.1478 10.6382C10.1021 10.7532 10.0802 10.8763 10.0833 11C10.0826 11.1206 10.1058 11.2402 10.1514 11.3519C10.197 11.4636 10.2642 11.5652 10.3492 11.6508C10.4363 11.7343 10.5391 11.7997 10.6517 11.8433C10.7605 11.8947 10.8798 11.9198 11 11.9167C11.1206 11.9174 11.2402 11.8943 11.3519 11.8486C11.4636 11.803 11.5652 11.7358 11.6508 11.6508C11.7358 11.5652 11.803 11.4636 11.8486 11.3519C11.8942 11.2402 11.9174 11.1206 11.9167 11C11.9174 10.8794 11.8942 10.7598 11.8486 10.6481C11.803 10.5364 11.7358 10.4348 11.6508 10.3492C11.5617 10.2682 11.4594 10.2031 11.3483 10.1567ZM18.3333 8.19501C18.3238 8.1108 18.3054 8.02784 18.2783 7.94751V7.86501C18.2343 7.77076 18.1755 7.68412 18.1042 7.60834L12.6042 2.10834C12.5284 2.03704 12.4418 1.97825 12.3475 1.93418H12.2558C12.1667 1.88651 12.0709 1.85252 11.9717 1.83334H6.41667C5.68732 1.83334 4.98785 2.12307 4.47212 2.6388C3.9564 3.15452 3.66667 3.854 3.66667 4.58334V17.4167C3.66667 18.146 3.9564 18.8455 4.47212 19.3612C4.98785 19.8769 5.68732 20.1667 6.41667 20.1667H15.5833C16.3127 20.1667 17.0122 19.8769 17.5279 19.3612C18.0436 18.8455 18.3333 18.146 18.3333 17.4167V8.25001C18.3333 8.25001 18.3333 8.25001 18.3333 8.19501ZM12.8333 4.95918L15.2075 7.33334H13.75C13.5069 7.33334 13.2737 7.23677 13.1018 7.06486C12.9299 6.89295 12.8333 6.65979 12.8333 6.41668V4.95918ZM16.5 17.4167C16.5 17.6598 16.4034 17.893 16.2315 18.0649C16.0596 18.2368 15.8264 18.3333 15.5833 18.3333H6.41667C6.17355 18.3333 5.9404 18.2368 5.76849 18.0649C5.59658 17.893 5.5 17.6598 5.5 17.4167V4.58334C5.5 4.34023 5.59658 4.10707 5.76849 3.93516C5.9404 3.76325 6.17355 3.66668 6.41667 3.66668H11V6.41668C11 7.14602 11.2897 7.8455 11.8055 8.36122C12.3212 8.87695 13.0207 9.16668 13.75 9.16668H16.5V17.4167Z" fill="#225AD6"/>
</svg>
