<svg width="22" height="22" viewBox="0 0 22 22" fill="none" xmlns="http://www.w3.org/2000/svg">
<path d="M10.9993 12.833C10.7562 12.833 10.5231 12.9296 10.3512 13.1015C10.1793 13.2734 10.0827 13.5066 10.0827 13.7497V15.583C10.0827 15.8261 10.1793 16.0593 10.3512 16.2312C10.5231 16.4031 10.7562 16.4997 10.9993 16.4997C11.2425 16.4997 11.4756 16.4031 11.6475 16.2312C11.8194 16.0593 11.916 15.8261 11.916 15.583V13.7497C11.916 13.5066 11.8194 13.2734 11.6475 13.1015C11.4756 12.9296 11.2425 12.833 10.9993 12.833ZM11.3477 10.1563C11.1817 10.0794 10.9966 10.0539 10.816 10.083L10.651 10.138L10.486 10.2205L10.3485 10.3305C10.2613 10.4183 10.1928 10.5229 10.1471 10.6379C10.1015 10.7529 10.0795 10.876 10.0827 10.9997C10.082 11.1203 10.1051 11.2399 10.1507 11.3516C10.1963 11.4633 10.2636 11.5649 10.3485 11.6505C10.4357 11.734 10.5385 11.7994 10.651 11.843C10.7598 11.8943 10.8791 11.9194 10.9993 11.9163C11.12 11.917 11.2396 11.8939 11.3513 11.8483C11.4629 11.8027 11.5645 11.7355 11.6502 11.6505C11.7351 11.5649 11.8024 11.4633 11.848 11.3516C11.8936 11.2399 11.9167 11.1203 11.916 10.9997C11.9167 10.879 11.8936 10.7594 11.848 10.6478C11.8024 10.5361 11.7351 10.4345 11.6502 10.3488C11.5611 10.2679 11.4588 10.2028 11.3477 10.1563ZM18.3327 8.19467C18.3231 8.11046 18.3047 8.0275 18.2777 7.94717V7.86467C18.2336 7.77042 18.1748 7.68378 18.1035 7.60801L12.6035 2.10801C12.5277 2.03671 12.4411 1.97792 12.3468 1.93384H12.2552C12.166 1.88618 12.0703 1.85219 11.971 1.83301H6.41602C5.68667 1.83301 4.9872 2.12274 4.47147 2.63846C3.95575 3.15419 3.66602 3.85366 3.66602 4.58301V17.4163C3.66602 18.1457 3.95575 18.8452 4.47147 19.3609C4.9872 19.8766 5.68667 20.1663 6.41602 20.1663H15.5827C16.312 20.1663 17.0115 19.8766 17.5272 19.3609C18.043 18.8452 18.3327 18.1457 18.3327 17.4163V8.24967C18.3327 8.24967 18.3327 8.24967 18.3327 8.19467ZM12.8327 4.95884L15.2068 7.33301H13.7493C13.5062 7.33301 13.2731 7.23643 13.1012 7.06452C12.9293 6.89261 12.8327 6.65946 12.8327 6.41634V4.95884ZM16.4993 17.4163C16.4993 17.6595 16.4028 17.8926 16.2309 18.0645C16.059 18.2364 15.8258 18.333 15.5827 18.333H6.41602C6.1729 18.333 5.93974 18.2364 5.76783 18.0645C5.59593 17.8926 5.49935 17.6595 5.49935 17.4163V4.58301C5.49935 4.33989 5.59593 4.10673 5.76783 3.93483C5.93974 3.76292 6.1729 3.66634 6.41602 3.66634H10.9993V6.41634C10.9993 7.14569 11.2891 7.84516 11.8048 8.36088C12.3205 8.87661 13.02 9.16634 13.7493 9.16634H16.4993V17.4163Z" fill="#A3A3A3"/>
</svg>
