<svg width="22" height="22" viewBox="0 0 22 22" fill="none" xmlns="http://www.w3.org/2000/svg">
<path d="M14.6667 12.8333H7.33333C7.09022 12.8333 6.85706 12.9299 6.68515 13.1018C6.51324 13.2737 6.41667 13.5069 6.41667 13.75C6.41667 13.9931 6.51324 14.2263 6.68515 14.3982C6.85706 14.5701 7.09022 14.6667 7.33333 14.6667H14.6667C14.9098 14.6667 15.1429 14.5701 15.3148 14.3982C15.4868 14.2263 15.5833 13.9931 15.5833 13.75C15.5833 13.5069 15.4868 13.2737 15.3148 13.1018C15.1429 12.9299 14.9098 12.8333 14.6667 12.8333ZM14.6667 9.16667H9.16667C8.92355 9.16667 8.69039 9.26325 8.51849 9.43515C8.34658 9.60706 8.25 9.84022 8.25 10.0833C8.25 10.3265 8.34658 10.5596 8.51849 10.7315C8.69039 10.9034 8.92355 11 9.16667 11H14.6667C14.9098 11 15.1429 10.9034 15.3148 10.7315C15.4868 10.5596 15.5833 10.3265 15.5833 10.0833C15.5833 9.84022 15.4868 9.60706 15.3148 9.43515C15.1429 9.26325 14.9098 9.16667 14.6667 9.16667ZM18.3333 3.66667H15.5833V2.75C15.5833 2.50689 15.4868 2.27373 15.3148 2.10182C15.1429 1.92991 14.9098 1.83334 14.6667 1.83334C14.4236 1.83334 14.1904 1.92991 14.0185 2.10182C13.8466 2.27373 13.75 2.50689 13.75 2.75V3.66667H11.9167V2.75C11.9167 2.50689 11.8201 2.27373 11.6482 2.10182C11.4763 1.92991 11.2431 1.83334 11 1.83334C10.7569 1.83334 10.5237 1.92991 10.3518 2.10182C10.1799 2.27373 10.0833 2.50689 10.0833 2.75V3.66667H8.25V2.75C8.25 2.50689 8.15342 2.27373 7.98151 2.10182C7.80961 1.92991 7.57645 1.83334 7.33333 1.83334C7.09022 1.83334 6.85706 1.92991 6.68515 2.10182C6.51324 2.27373 6.41667 2.50689 6.41667 2.75V3.66667H3.66667C3.42355 3.66667 3.19039 3.76325 3.01849 3.93515C2.84658 4.10706 2.75 4.34022 2.75 4.58334V17.4167C2.75 18.146 3.03973 18.8455 3.55546 19.3612C4.07118 19.8769 4.77065 20.1667 5.5 20.1667H16.5C17.2293 20.1667 17.9288 19.8769 18.4445 19.3612C18.9603 18.8455 19.25 18.146 19.25 17.4167V4.58334C19.25 4.34022 19.1534 4.10706 18.9815 3.93515C18.8096 3.76325 18.5764 3.66667 18.3333 3.66667ZM17.4167 17.4167C17.4167 17.6598 17.3201 17.8929 17.1482 18.0648C16.9763 18.2368 16.7431 18.3333 16.5 18.3333H5.5C5.25688 18.3333 5.02373 18.2368 4.85182 18.0648C4.67991 17.8929 4.58333 17.6598 4.58333 17.4167V5.5H6.41667V6.41667C6.41667 6.65978 6.51324 6.89294 6.68515 7.06485C6.85706 7.23676 7.09022 7.33334 7.33333 7.33334C7.57645 7.33334 7.80961 7.23676 7.98151 7.06485C8.15342 6.89294 8.25 6.65978 8.25 6.41667V5.5H10.0833V6.41667C10.0833 6.65978 10.1799 6.89294 10.3518 7.06485C10.5237 7.23676 10.7569 7.33334 11 7.33334C11.2431 7.33334 11.4763 7.23676 11.6482 7.06485C11.8201 6.89294 11.9167 6.65978 11.9167 6.41667V5.5H13.75V6.41667C13.75 6.65978 13.8466 6.89294 14.0185 7.06485C14.1904 7.23676 14.4236 7.33334 14.6667 7.33334C14.9098 7.33334 15.1429 7.23676 15.3148 7.06485C15.4868 6.89294 15.5833 6.65978 15.5833 6.41667V5.5H17.4167V17.4167Z" fill="#A3A3A3"/>
</svg>
