<svg width="22" height="22" viewBox="0 0 22 22" fill="none" xmlns="http://www.w3.org/2000/svg">
<path d="M17.4167 6.41666H14.6667V5.49999C14.6667 4.52753 14.2804 3.5949 13.5927 2.90727C12.9051 2.21964 11.9725 1.83333 11 1.83333C10.0275 1.83333 9.09491 2.21964 8.40728 2.90727C7.71964 3.5949 7.33333 4.52753 7.33333 5.49999V6.41666H4.58333C4.34022 6.41666 4.10706 6.51324 3.93515 6.68515C3.76325 6.85706 3.66667 7.09021 3.66667 7.33333V17.4167C3.66667 18.146 3.9564 18.8455 4.47212 19.3612C4.98785 19.8769 5.68732 20.1667 6.41667 20.1667H15.5833C16.3127 20.1667 17.0122 19.8769 17.5279 19.3612C18.0436 18.8455 18.3333 18.146 18.3333 17.4167V7.33333C18.3333 7.09021 18.2368 6.85706 18.0648 6.68515C17.8929 6.51324 17.6598 6.41666 17.4167 6.41666ZM9.16667 5.49999C9.16667 5.01376 9.35982 4.54745 9.70364 4.20363C10.0475 3.85982 10.5138 3.66666 11 3.66666C11.4862 3.66666 11.9525 3.85982 12.2964 4.20363C12.6402 4.54745 12.8333 5.01376 12.8333 5.49999V6.41666H9.16667V5.49999ZM16.5 17.4167C16.5 17.6598 16.4034 17.8929 16.2315 18.0648C16.0596 18.2368 15.8264 18.3333 15.5833 18.3333H6.41667C6.17355 18.3333 5.9404 18.2368 5.76849 18.0648C5.59658 17.8929 5.5 17.6598 5.5 17.4167V8.24999H7.33333V9.16666C7.33333 9.40978 7.42991 9.64293 7.60182 9.81484C7.77373 9.98675 8.00689 10.0833 8.25 10.0833C8.49312 10.0833 8.72627 9.98675 8.89818 9.81484C9.07009 9.64293 9.16667 9.40978 9.16667 9.16666V8.24999H12.8333V9.16666C12.8333 9.40978 12.9299 9.64293 13.1018 9.81484C13.2737 9.98675 13.5069 10.0833 13.75 10.0833C13.9931 10.0833 14.2263 9.98675 14.3982 9.81484C14.5701 9.64293 14.6667 9.40978 14.6667 9.16666V8.24999H16.5V17.4167Z" fill="#A3A3A3"/>
</svg>
