<svg width="22" height="22" viewBox="0 0 22 22" fill="none" xmlns="http://www.w3.org/2000/svg">
<path d="M20.1667 8.86417C20.1088 8.6965 20.0035 8.54923 19.8636 8.44021C19.7236 8.3312 19.5551 8.26512 19.3783 8.25L14.1625 7.48917L11.825 2.75C11.7499 2.59502 11.6327 2.46432 11.4868 2.37286C11.3409 2.28141 11.1722 2.2329 11 2.2329C10.8278 2.2329 10.6591 2.28141 10.5132 2.37286C10.3673 2.46432 10.2501 2.59502 10.175 2.75L7.8375 7.48L2.62167 8.25C2.45201 8.27412 2.29251 8.3453 2.16127 8.45548C2.03003 8.56566 1.9323 8.71042 1.87917 8.87334C1.83053 9.03254 1.82617 9.20198 1.86654 9.36347C1.90692 9.52497 1.9905 9.67242 2.10833 9.79L5.89417 13.4567L4.9775 18.6633C4.94478 18.8352 4.96191 19.0128 5.02688 19.1752C5.09185 19.3377 5.20195 19.4781 5.34417 19.58C5.48278 19.6791 5.64628 19.7376 5.81629 19.7489C5.98631 19.7603 6.15612 19.724 6.30667 19.6442L11 17.1967L15.675 19.6533C15.8037 19.7259 15.949 19.7638 16.0967 19.7633C16.2908 19.764 16.4802 19.703 16.6375 19.5892C16.7797 19.4873 16.8898 19.3468 16.9548 19.1844C17.0198 19.022 17.0369 18.8444 17.0042 18.6725L16.0875 13.4658L19.8733 9.79917C20.0057 9.68704 20.1035 9.53966 20.1554 9.37416C20.2074 9.20865 20.2112 9.0318 20.1667 8.86417ZM14.5292 12.5308C14.4217 12.6348 14.3412 12.7635 14.2949 12.9057C14.2486 13.0479 14.2377 13.1993 14.2633 13.3467L14.9233 17.1875L11.4767 15.3542C11.344 15.2835 11.1961 15.2466 11.0458 15.2466C10.8956 15.2466 10.7476 15.2835 10.615 15.3542L7.16833 17.1875L7.82833 13.3467C7.85394 13.1993 7.8431 13.0479 7.79677 12.9057C7.75043 12.7635 7.67 12.6348 7.5625 12.5308L4.8125 9.78084L8.67167 9.22167C8.82017 9.20101 8.96133 9.14425 9.08279 9.05635C9.20425 8.96845 9.3023 8.8521 9.36833 8.7175L11 5.225L12.7233 8.72667C12.7894 8.86127 12.8874 8.97762 13.0089 9.06552C13.1303 9.15342 13.2715 9.21018 13.42 9.23084L17.2792 9.79L14.5292 12.5308Z" fill="#A3A3A3"/>
</svg>
