<svg width="22" height="22" viewBox="0 0 22 22" fill="none" xmlns="http://www.w3.org/2000/svg">
<path d="M11.9167 14.6667H2.75C2.50688 14.6667 2.27373 14.7632 2.10182 14.9352C1.92991 15.1071 1.83333 15.3402 1.83333 15.5833C1.83333 15.8264 1.92991 16.0596 2.10182 16.2315C2.27373 16.4034 2.50688 16.5 2.75 16.5H11.9167C12.1598 16.5 12.3929 16.4034 12.5648 16.2315C12.7368 16.0596 12.8333 15.8264 12.8333 15.5833C12.8333 15.3402 12.7368 15.1071 12.5648 14.9352C12.3929 14.7632 12.1598 14.6667 11.9167 14.6667ZM2.75 7.33333H19.25C19.4931 7.33333 19.7263 7.23676 19.8982 7.06485C20.0701 6.89294 20.1667 6.65978 20.1667 6.41667C20.1667 6.17355 20.0701 5.94039 19.8982 5.76849C19.7263 5.59658 19.4931 5.5 19.25 5.5H2.75C2.50688 5.5 2.27373 5.59658 2.10182 5.76849C1.92991 5.94039 1.83333 6.17355 1.83333 6.41667C1.83333 6.65978 1.92991 6.89294 2.10182 7.06485C2.27373 7.23676 2.50688 7.33333 2.75 7.33333ZM19.25 10.0833H2.75C2.50688 10.0833 2.27373 10.1799 2.10182 10.3518C1.92991 10.5237 1.83333 10.7569 1.83333 11C1.83333 11.2431 1.92991 11.4763 2.10182 11.6482C2.27373 11.8201 2.50688 11.9167 2.75 11.9167H19.25C19.4931 11.9167 19.7263 11.8201 19.8982 11.6482C20.0701 11.4763 20.1667 11.2431 20.1667 11C20.1667 10.7569 20.0701 10.5237 19.8982 10.3518C19.7263 10.1799 19.4931 10.0833 19.25 10.0833Z" fill="#A3A3A3"/>
</svg>
