<svg width="22" height="22" viewBox="0 0 22 22" fill="none" xmlns="http://www.w3.org/2000/svg">
<path d="M17.4167 5.95833H14.6667V5.04167C14.6667 4.31232 14.3769 3.61285 13.8612 3.09712C13.3455 2.5814 12.646 2.29167 11.9167 2.29167H10.0833C9.35399 2.29167 8.65451 2.5814 8.13879 3.09712C7.62306 3.61285 7.33333 4.31232 7.33333 5.04167V5.95833H4.58333C3.85399 5.95833 3.15451 6.24806 2.63879 6.76379C2.12306 7.27951 1.83333 7.97899 1.83333 8.70833V16.9583C1.83333 17.6877 2.12306 18.3872 2.63879 18.9029C3.15451 19.4186 3.85399 19.7083 4.58333 19.7083H17.4167C18.146 19.7083 18.8455 19.4186 19.3612 18.9029C19.8769 18.3872 20.1667 17.6877 20.1667 16.9583V8.70833C20.1667 7.97899 19.8769 7.27951 19.3612 6.76379C18.8455 6.24806 18.146 5.95833 17.4167 5.95833ZM9.16667 5.04167C9.16667 4.79855 9.26324 4.56539 9.43515 4.39349C9.60706 4.22158 9.84022 4.125 10.0833 4.125H11.9167C12.1598 4.125 12.3929 4.22158 12.5648 4.39349C12.7368 4.56539 12.8333 4.79855 12.8333 5.04167V5.95833H9.16667V5.04167ZM18.3333 16.9583C18.3333 17.2014 18.2368 17.4346 18.0648 17.6065C17.8929 17.7784 17.6598 17.875 17.4167 17.875H4.58333C4.34022 17.875 4.10706 17.7784 3.93515 17.6065C3.76324 17.4346 3.66667 17.2014 3.66667 16.9583V12.3292H6.41667V13.2917C6.41667 13.5348 6.51324 13.7679 6.68515 13.9398C6.85706 14.1118 7.09022 14.2083 7.33333 14.2083C7.57645 14.2083 7.8096 14.1118 7.98151 13.9398C8.15342 13.7679 8.25 13.5348 8.25 13.2917V12.3292H13.75V13.2917C13.75 13.5348 13.8466 13.7679 14.0185 13.9398C14.1904 14.1118 14.4235 14.2083 14.6667 14.2083C14.9098 14.2083 15.1429 14.1118 15.3148 13.9398C15.4868 13.7679 15.5833 13.5348 15.5833 13.2917V12.3292H18.3333V16.9583ZM18.3333 10.5417H3.66667V8.70833C3.66667 8.46522 3.76324 8.23206 3.93515 8.06015C4.10706 7.88824 4.34022 7.79167 4.58333 7.79167H17.4167C17.6598 7.79167 17.8929 7.88824 18.0648 8.06015C18.2368 8.23206 18.3333 8.46522 18.3333 8.70833V10.5417Z" fill="#A3A3A3"/>
</svg>
