<svg width="22" height="22" viewBox="0 0 22 22" fill="none" xmlns="http://www.w3.org/2000/svg">
<g clip-path="url(#clip0_1_2778)">
<path d="M11 20.1667C16.0626 20.1667 20.1667 16.0626 20.1667 11C20.1667 5.9374 16.0626 1.83334 11 1.83334C5.93739 1.83334 1.83333 5.9374 1.83333 11C1.83333 16.0626 5.93739 20.1667 11 20.1667Z" stroke="#A3A3A3" stroke-width="2" stroke-linecap="round" stroke-linejoin="round"/>
<path d="M11 16.5C14.0376 16.5 16.5 14.0376 16.5 11C16.5 7.96243 14.0376 5.5 11 5.5C7.96243 5.5 5.5 7.96243 5.5 11C5.5 14.0376 7.96243 16.5 11 16.5Z" stroke="#A3A3A3" stroke-width="2" stroke-linecap="round" stroke-linejoin="round"/>
<path d="M11 12.8333C12.0125 12.8333 12.8333 12.0125 12.8333 11C12.8333 9.98748 12.0125 9.16667 11 9.16667C9.98748 9.16667 9.16666 9.98748 9.16666 11C9.16666 12.0125 9.98748 12.8333 11 12.8333Z" stroke="#A3A3A3" stroke-width="2" stroke-linecap="round" stroke-linejoin="round"/>
</g>
<defs>
<clipPath id="clip0_1_2778">
<rect width="22" height="22" fill="white"/>
</clipPath>
</defs>
</svg>
