<svg width="22" height="22" viewBox="0 0 22 22" fill="none" xmlns="http://www.w3.org/2000/svg">
<path d="M10.7913 10.7196C11.2143 10.346 11.5536 9.88401 11.7861 9.36485C12.0187 8.8457 12.139 8.28158 12.139 7.71079C12.139 6.63822 11.7214 5.60959 10.978 4.85117C10.2347 4.09275 9.22652 3.66667 8.17528 3.66667C7.12403 3.66667 6.11585 4.09275 5.37251 4.85117C4.62917 5.60959 4.21156 6.63822 4.21156 7.71079C4.21156 8.28158 4.3319 8.8457 4.56443 9.36485C4.79696 9.88401 5.13623 10.346 5.55922 10.7196C4.4495 11.2323 3.50797 12.0603 2.84723 13.1045C2.1865 14.1487 1.8345 15.3649 1.83333 16.6078C1.83333 16.8224 1.91685 17.0281 2.06552 17.1798C2.21419 17.3315 2.41583 17.4167 2.62608 17.4167C2.83632 17.4167 3.03796 17.3315 3.18663 17.1798C3.3353 17.0281 3.41882 16.8224 3.41882 16.6078C3.41882 15.3208 3.91994 14.0864 4.81195 13.1763C5.70396 12.2662 6.91379 11.7549 8.17528 11.7549C9.43677 11.7549 10.6466 12.2662 11.5386 13.1763C12.4306 14.0864 12.9317 15.3208 12.9317 16.6078C12.9317 16.8224 13.0153 17.0281 13.1639 17.1798C13.3126 17.3315 13.5142 17.4167 13.7245 17.4167C13.9347 17.4167 14.1364 17.3315 14.285 17.1798C14.4337 17.0281 14.5172 16.8224 14.5172 16.6078C14.5161 15.3649 14.1641 14.1487 13.5033 13.1045C12.8426 12.0603 11.9011 11.2323 10.7913 10.7196ZM8.17528 10.1373C7.70491 10.1373 7.2451 9.99495 6.854 9.72833C6.46291 9.4617 6.15808 9.08274 5.97808 8.63936C5.79808 8.19598 5.75098 7.7081 5.84274 7.23741C5.93451 6.76672 6.16101 6.33436 6.49362 5.99502C6.82622 5.65567 7.24998 5.42457 7.71131 5.33094C8.17264 5.23732 8.65082 5.28537 9.08539 5.46902C9.51995 5.65268 9.89138 5.96368 10.1527 6.36271C10.414 6.76175 10.5535 7.23088 10.5535 7.71079C10.5535 8.35433 10.3029 8.97151 9.85694 9.42656C9.41093 9.88162 8.80602 10.1373 8.17528 10.1373ZM15.8966 10.3961C16.4039 9.81319 16.7353 9.09311 16.8509 8.32253C16.9665 7.55196 16.8613 6.76372 16.548 6.0527C16.2348 5.34169 15.7268 4.7382 15.0852 4.31488C14.4436 3.89157 13.6958 3.66646 12.9317 3.66667C12.7215 3.66667 12.5199 3.75189 12.3712 3.90357C12.2225 4.05525 12.139 4.26098 12.139 4.4755C12.139 4.69001 12.2225 4.89574 12.3712 5.04742C12.5199 5.1991 12.7215 5.28432 12.9317 5.28432C13.5625 5.28432 14.1674 5.53996 14.6134 5.99502C15.0594 6.45007 15.31 7.06725 15.31 7.71079C15.3088 8.13562 15.1984 8.5527 14.9897 8.92032C14.7811 9.28795 14.4814 9.59323 14.1209 9.80564C14.0033 9.87481 13.9052 9.97361 13.8358 10.0926C13.7664 10.2115 13.728 10.3467 13.7245 10.4851C13.7212 10.6224 13.7522 10.7583 13.8146 10.88C13.877 11.0017 13.9688 11.1051 14.0812 11.1806L14.3904 11.3909L14.4934 11.4476C15.449 11.91 16.2552 12.6414 16.817 13.5556C17.3787 14.4698 17.6728 15.5288 17.6644 16.6078C17.6644 16.8224 17.7479 17.0281 17.8966 17.1798C18.0453 17.3315 18.2469 17.4167 18.4572 17.4167C18.6674 17.4167 18.869 17.3315 19.0177 17.1798C19.1664 17.0281 19.2499 16.8224 19.2499 16.6078C19.2564 15.3667 18.9517 14.1444 18.3648 13.0572C17.7779 11.9699 16.9282 11.0539 15.8966 10.3961Z" fill="#A3A3A3"/>
</svg>
