<svg width="12" height="12" viewBox="0 0 12 12" fill="none" xmlns="http://www.w3.org/2000/svg">
<path d="M4.2339 4.19726L4.23278 4.19817L4.23171 4.19921L4.2339 4.19726ZM9.21096 4.10399C9.17617 4.07047 9.13757 4.04113 9.09596 4.01659C9.03705 3.98192 8.97166 3.9597 8.90382 3.95131C8.83599 3.94291 8.76715 3.94852 8.70157 3.96779C8.63599 3.98706 8.57506 4.01957 8.52254 4.06332C8.47003 4.10708 8.42704 4.16113 8.39625 4.22216C8.22402 4.5615 7.98647 4.8635 7.69725 5.11083C7.74148 4.86163 7.76378 4.60903 7.7639 4.35594C7.76483 3.58599 7.56171 2.82955 7.17523 2.16362C6.78875 1.4977 6.2327 0.946085 5.56371 0.564942C5.49001 0.523165 5.40691 0.500797 5.3222 0.499934C5.23749 0.499072 5.15395 0.519745 5.07942 0.560013C5.00489 0.60028 4.94181 0.658823 4.8961 0.730147C4.85039 0.801471 4.82355 0.883239 4.8181 0.967777C4.79012 1.44186 4.66618 1.90534 4.4538 2.33011C4.24141 2.75488 3.945 3.13212 3.58252 3.43896L3.46728 3.53271C3.08824 3.78775 2.75273 4.10216 2.47363 4.46386C2.03979 5.01041 1.73925 5.65053 1.59586 6.33345C1.45246 7.01636 1.47016 7.7233 1.64753 8.39819C1.8249 9.07308 2.15708 9.69737 2.61771 10.2215C3.07835 10.7457 3.65478 11.1553 4.30129 11.418C4.37719 11.449 4.45957 11.4608 4.54115 11.4525C4.62272 11.4442 4.70099 11.4159 4.76905 11.3701C4.83711 11.3244 4.89287 11.2626 4.9314 11.1902C4.96994 11.1178 4.99007 11.0371 4.99002 10.9551C4.98966 10.902 4.98126 10.8493 4.96512 10.7988C4.85325 10.3783 4.82104 9.94063 4.87014 9.50829C5.34326 10.4006 6.10271 11.108 7.02639 11.5166C7.13914 11.567 7.2666 11.5738 7.38406 11.5356C8.11384 11.3001 8.77127 10.8819 9.29388 10.3207C9.8165 9.75947 10.1869 9.07397 10.37 8.32929C10.5531 7.58461 10.5427 6.80549 10.3398 6.06595C10.1369 5.32642 9.74835 4.65104 9.21096 4.10399ZM7.25856 10.5195C6.82272 10.2986 6.43825 9.98849 6.13014 9.60926C5.82203 9.23002 5.59719 8.79019 5.47023 8.31835C5.43146 8.15948 5.40146 7.99859 5.38039 7.83642C5.3661 7.73314 5.31991 7.63691 5.24825 7.56118C5.17659 7.48546 5.08306 7.43401 4.98073 7.41405C4.94921 7.40784 4.91715 7.40473 4.88502 7.40478C4.79714 7.40475 4.7108 7.42789 4.63472 7.47187C4.55864 7.51585 4.4955 7.57911 4.45167 7.65528C4.0368 8.37084 3.82816 9.18729 3.84888 10.0142C3.484 9.73047 3.17906 9.37717 2.95172 8.97476C2.72438 8.57234 2.57918 8.12881 2.52452 7.66986C2.46986 7.21091 2.50683 6.74568 2.63329 6.30113C2.75975 5.85657 2.97319 5.44154 3.26124 5.08008C3.47994 4.796 3.74378 4.54973 4.04224 4.35108C4.05516 4.34274 4.06755 4.33361 4.07935 4.32374C4.07935 4.32374 4.22769 4.201 4.23276 4.19819C4.94511 3.59567 5.45176 2.78594 5.68213 1.88184C6.22692 2.38546 6.59018 3.05486 6.71551 3.7861C6.84084 4.51734 6.72123 5.2695 6.37525 5.92579C6.32954 6.01336 6.31078 6.11251 6.32136 6.21073C6.33193 6.30895 6.37136 6.40184 6.43466 6.47768C6.49796 6.55352 6.5823 6.60891 6.67705 6.63687C6.7718 6.66483 6.8727 6.66411 6.96704 6.63479C7.73293 6.3947 8.40689 5.92575 8.8982 5.29104C9.19347 5.72718 9.38652 6.22434 9.46295 6.74547C9.53937 7.26659 9.49722 7.79824 9.33961 8.30081C9.18201 8.80338 8.91302 9.2639 8.5527 9.64806C8.19237 10.0322 7.75 10.3301 7.25855 10.5195L7.25856 10.5195Z" fill="#FF0000"/>
</svg>
