<svg width="30" height="30" viewBox="0 0 30 30" fill="none" xmlns="http://www.w3.org/2000/svg">
<path d="M15 30C23.2843 30 30 23.2843 30 15C30 6.71573 23.2843 0 15 0C6.71573 0 0 6.71573 0 15C0 23.2843 6.71573 30 15 30Z" fill="#8247E5"/>
<path d="M19.8569 11.6875C19.5156 11.4925 19.0769 11.4925 18.6868 11.6875L15.9567 13.2963L14.1041 14.3201L11.4228 15.9289C11.0815 16.1239 10.6427 16.1239 10.2527 15.9289L8.15636 14.6614C7.8151 14.4664 7.57134 14.0764 7.57134 13.6376V11.2C7.57134 10.81 7.76634 10.4199 8.15636 10.1762L10.2527 8.95737C10.594 8.76236 11.0327 8.76236 11.4228 8.95737L13.5191 10.2249C13.8604 10.4199 14.1041 10.81 14.1041 11.2487V12.8576L15.9567 11.785V10.1274C15.9567 9.73741 15.7617 9.34739 15.3717 9.10363L11.4715 6.81227C11.1302 6.61726 10.6915 6.61726 10.3015 6.81227L6.30378 9.15238C5.91376 9.34739 5.71875 9.73741 5.71875 10.1274V14.7101C5.71875 15.1002 5.91376 15.4902 6.30378 15.7339L10.2527 18.0253C10.594 18.2203 11.0327 18.2203 11.4228 18.0253L14.1041 16.4652L15.9567 15.3927L18.6381 13.8326C18.9794 13.6376 19.4181 13.6376 19.8081 13.8326L21.9045 15.0514C22.2458 15.2464 22.4895 15.6364 22.4895 16.0752V18.5128C22.4895 18.9028 22.2945 19.2928 21.9045 19.5366L19.8569 20.7554C19.5156 20.9504 19.0769 20.9504 18.6868 20.7554L16.5905 19.5366C16.2492 19.3416 16.0055 18.9516 16.0055 18.5128V16.9527L14.1529 18.0253V19.6341C14.1529 20.0241 14.3479 20.4141 14.7379 20.6579L18.6868 22.9493C19.0281 23.1443 19.4669 23.1443 19.8569 22.9493L23.8058 20.6579C24.1471 20.4629 24.3909 20.0729 24.3909 19.6341V15.0026C24.3909 14.6126 24.1958 14.2226 23.8058 13.9789L19.8569 11.6875Z" fill="white"/>
</svg>
