<svg width="30" height="30" viewBox="0 0 30 30" fill="none" xmlns="http://www.w3.org/2000/svg">
<path d="M15 30C23.2843 30 30 23.2843 30 15C30 6.71573 23.2843 0 15 0C6.71573 0 0 6.71573 0 15C0 23.2843 6.71573 30 15 30Z" fill="#434343"/>
<path d="M17.2936 16.9126H13.2426V18.9507H19.4826V20.6617H13.2426V23.6559H10.9278V20.6617H8.78906V18.9507H10.9278V16.9126H8.78906V14.7991H10.9278V6.04297H17.2936C18.82 6.04297 20.12 6.57974 21.1936 7.65329C22.2671 8.71007 22.8039 9.99329 22.8039 11.503C22.8039 13.0126 22.2671 14.2959 21.1936 15.3526C20.1368 16.3926 18.8368 16.9126 17.2936 16.9126ZM13.2426 8.232V14.7991H17.2936C18.1658 14.7991 18.9123 14.4804 19.5329 13.843C20.1704 13.1888 20.4891 12.4088 20.4891 11.503C20.4891 10.5972 20.1787 9.82555 19.5581 9.18813C18.9375 8.55071 18.1826 8.232 17.2936 8.232H13.2426Z" fill="white"/>
</svg>
