<svg width="109" height="33" viewBox="0 0 109 33" fill="none" xmlns="http://www.w3.org/2000/svg">
<rect width="109" height="33" fill="#1027FF"/>
<path d="M19.02 11.6V20H17.64V12.92H14.22V20H12.84V11.6H19.02ZM24.0153 13.844C24.8393 13.844 25.5433 14.152 26.1273 14.768C26.7113 15.376 27.0033 16.12 27.0033 17C27.0033 17.888 26.7113 18.636 26.1273 19.244C25.5433 19.852 24.8393 20.156 24.0153 20.156C23.1033 20.156 22.4033 19.82 21.9153 19.148V22.4H20.6193V14H21.9153V14.864C22.4033 14.184 23.1033 13.844 24.0153 13.844ZM22.4553 18.38C22.8153 18.74 23.2673 18.92 23.8113 18.92C24.3553 18.92 24.8073 18.74 25.1673 18.38C25.5273 18.012 25.7073 17.552 25.7073 17C25.7073 16.448 25.5273 15.992 25.1673 15.632C24.8073 15.264 24.3553 15.08 23.8113 15.08C23.2673 15.08 22.8153 15.264 22.4553 15.632C22.0953 15.992 21.9153 16.448 21.9153 17C21.9153 17.552 22.0953 18.012 22.4553 18.38ZM31.0099 20.156C30.1299 20.156 29.3819 19.852 28.7659 19.244C28.1499 18.636 27.8419 17.888 27.8419 17C27.8419 16.112 28.1499 15.364 28.7659 14.756C29.3819 14.148 30.1299 13.844 31.0099 13.844C31.8979 13.844 32.6459 14.148 33.2539 14.756C33.8699 15.364 34.1779 16.112 34.1779 17C34.1779 17.888 33.8699 18.636 33.2539 19.244C32.6459 19.852 31.8979 20.156 31.0099 20.156ZM29.6779 18.356C30.0379 18.716 30.4819 18.896 31.0099 18.896C31.5379 18.896 31.9819 18.716 32.3419 18.356C32.7019 17.996 32.8819 17.544 32.8819 17C32.8819 16.456 32.7019 16.004 32.3419 15.644C31.9819 15.284 31.5379 15.104 31.0099 15.104C30.4819 15.104 30.0379 15.284 29.6779 15.644C29.3179 16.004 29.1379 16.456 29.1379 17C29.1379 17.544 29.3179 17.996 29.6779 18.356ZM38.1818 20.156C37.2778 20.156 36.5218 19.852 35.9138 19.244C35.3138 18.636 35.0138 17.888 35.0138 17C35.0138 16.104 35.3138 15.356 35.9138 14.756C36.5218 14.148 37.2778 13.844 38.1818 13.844C38.7658 13.844 39.2978 13.984 39.7778 14.264C40.2578 14.544 40.6178 14.92 40.8578 15.392L39.7418 16.04C39.6058 15.752 39.3978 15.528 39.1178 15.368C38.8458 15.2 38.5298 15.116 38.1698 15.116C37.6418 15.116 37.1978 15.296 36.8378 15.656C36.4858 16.016 36.3098 16.464 36.3098 17C36.3098 17.536 36.4858 17.984 36.8378 18.344C37.1978 18.704 37.6418 18.884 38.1698 18.884C38.5218 18.884 38.8378 18.8 39.1178 18.632C39.4058 18.464 39.6218 18.24 39.7658 17.96L40.8818 18.596C40.6258 19.076 40.2578 19.456 39.7778 19.736C39.2978 20.016 38.7658 20.156 38.1818 20.156ZM47.9737 14V20H46.7137V16.052L44.9857 18.8H44.8297L43.1137 16.064V20H41.8537V14H43.1737L44.9137 16.772L46.6537 14H47.9737ZM52.3028 20.156C51.4228 20.156 50.6748 19.852 50.0588 19.244C49.4428 18.636 49.1348 17.888 49.1348 17C49.1348 16.112 49.4428 15.364 50.0588 14.756C50.6748 14.148 51.4228 13.844 52.3028 13.844C53.1908 13.844 53.9388 14.148 54.5468 14.756C55.1628 15.364 55.4708 16.112 55.4708 17C55.4708 17.888 55.1628 18.636 54.5468 19.244C53.9388 19.852 53.1908 20.156 52.3028 20.156ZM50.9708 18.356C51.3308 18.716 51.7748 18.896 52.3028 18.896C52.8308 18.896 53.2748 18.716 53.6348 18.356C53.9948 17.996 54.1748 17.544 54.1748 17C54.1748 16.456 53.9948 16.004 53.6348 15.644C53.2748 15.284 52.8308 15.104 52.3028 15.104C51.7748 15.104 51.3308 15.284 50.9708 15.644C50.6108 16.004 50.4308 16.456 50.4308 17C50.4308 17.544 50.6108 17.996 50.9708 18.356ZM60.9923 14V15.248H59.0363V20H57.7403V15.248H55.7723V14H60.9923ZM65.2653 13.844C66.0893 13.844 66.7933 14.152 67.3773 14.768C67.9613 15.376 68.2533 16.12 68.2533 17C68.2533 17.888 67.9613 18.636 67.3773 19.244C66.7933 19.852 66.0893 20.156 65.2653 20.156C64.3533 20.156 63.6533 19.82 63.1653 19.148V22.4H61.8693V14H63.1653V14.864C63.6533 14.184 64.3533 13.844 65.2653 13.844ZM63.7053 18.38C64.0653 18.74 64.5173 18.92 65.0613 18.92C65.6053 18.92 66.0573 18.74 66.4173 18.38C66.7773 18.012 66.9573 17.552 66.9573 17C66.9573 16.448 66.7773 15.992 66.4173 15.632C66.0573 15.264 65.6053 15.08 65.0613 15.08C64.5173 15.08 64.0653 15.264 63.7053 15.632C63.3453 15.992 63.1653 16.448 63.1653 17C63.1653 17.552 63.3453 18.012 63.7053 18.38ZM70.4479 17.552C70.5439 18.008 70.7639 18.36 71.1079 18.608C71.4519 18.848 71.8719 18.968 72.3679 18.968C73.0559 18.968 73.5719 18.72 73.9159 18.224L74.9839 18.848C74.3919 19.72 73.5159 20.156 72.3559 20.156C71.3799 20.156 70.5919 19.86 69.9919 19.268C69.3919 18.668 69.0919 17.912 69.0919 17C69.0919 16.104 69.3879 15.356 69.9799 14.756C70.5719 14.148 71.3319 13.844 72.2599 13.844C73.1399 13.844 73.8599 14.152 74.4199 14.768C74.9879 15.384 75.2719 16.132 75.2719 17.012C75.2719 17.148 75.2559 17.328 75.2239 17.552H70.4479ZM70.4359 16.496H73.9639C73.8759 16.008 73.6719 15.64 73.3519 15.392C73.0399 15.144 72.6719 15.02 72.2479 15.02C71.7679 15.02 71.3679 15.152 71.0479 15.416C70.7279 15.68 70.5239 16.04 70.4359 16.496ZM80.4563 14H81.7523V20H80.4563V17.612H77.7083V20H76.4123V14H77.7083V16.388H80.4563V14ZM87.3 14H88.596V20H87.3V17.612H84.552V20H83.256V14H84.552V16.388H87.3V14ZM92.9318 20.156C92.0518 20.156 91.3038 19.852 90.6878 19.244C90.0718 18.636 89.7638 17.888 89.7638 17C89.7638 16.112 90.0718 15.364 90.6878 14.756C91.3038 14.148 92.0518 13.844 92.9318 13.844C93.8198 13.844 94.5678 14.148 95.1758 14.756C95.7918 15.364 96.0998 16.112 96.0998 17C96.0998 17.888 95.7918 18.636 95.1758 19.244C94.5678 19.852 93.8198 20.156 92.9318 20.156ZM91.5998 18.356C91.9598 18.716 92.4038 18.896 92.9318 18.896C93.4598 18.896 93.9038 18.716 94.2638 18.356C94.6238 17.996 94.8038 17.544 94.8038 17C94.8038 16.456 94.6238 16.004 94.2638 15.644C93.9038 15.284 93.4598 15.104 92.9318 15.104C92.4038 15.104 91.9598 15.284 91.5998 15.644C91.2398 16.004 91.0598 16.456 91.0598 17C91.0598 17.544 91.2398 17.996 91.5998 18.356Z" fill="white"/>
</svg>
