<svg width="18" height="18" viewBox="0 0 18 18" fill="none" xmlns="http://www.w3.org/2000/svg">
<path d="M8.625 15H4.125C3.92609 15 3.73532 14.921 3.59467 14.7803C3.45402 14.6397 3.375 14.4489 3.375 14.25V3.75C3.375 3.55109 3.45402 3.36032 3.59467 3.21967C3.73532 3.07902 3.92609 3 4.125 3H7.875V5.25C7.875 5.84674 8.11205 6.41903 8.53401 6.84099C8.95597 7.26295 9.52826 7.5 10.125 7.5H12.375V11.25C12.375 11.4489 12.454 11.6397 12.5947 11.7803C12.7353 11.921 12.9261 12 13.125 12C13.3239 12 13.5147 11.921 13.6553 11.7803C13.796 11.6397 13.875 11.4489 13.875 11.25V6.75C13.875 6.75 13.875 6.75 13.875 6.705C13.8672 6.6361 13.8521 6.56822 13.83 6.5025V6.435C13.7939 6.35788 13.7458 6.287 13.6875 6.225L9.1875 1.725C9.1255 1.66666 9.05462 1.61856 8.9775 1.5825C8.95269 1.57816 8.92731 1.57816 8.9025 1.5825C8.82957 1.5435 8.7512 1.51569 8.67 1.5H4.125C3.52826 1.5 2.95597 1.73705 2.53401 2.15901C2.11205 2.58097 1.875 3.15326 1.875 3.75V14.25C1.875 14.8467 2.11205 15.419 2.53401 15.841C2.95597 16.2629 3.52826 16.5 4.125 16.5H8.625C8.82391 16.5 9.01468 16.421 9.15533 16.2803C9.29598 16.1397 9.375 15.9489 9.375 15.75C9.375 15.5511 9.29598 15.3603 9.15533 15.2197C9.01468 15.079 8.82391 15 8.625 15ZM9.375 4.0575L11.3175 6H10.125C9.92609 6 9.73532 5.92098 9.59467 5.78033C9.45402 5.63968 9.375 5.44891 9.375 5.25V4.0575ZM5.625 10.5H10.125C10.3239 10.5 10.5147 10.421 10.6553 10.2803C10.796 10.1397 10.875 9.94891 10.875 9.75C10.875 9.55109 10.796 9.36032 10.6553 9.21967C10.5147 9.07902 10.3239 9 10.125 9H5.625C5.42609 9 5.23532 9.07902 5.09467 9.21967C4.95402 9.36032 4.875 9.55109 4.875 9.75C4.875 9.94891 4.95402 10.1397 5.09467 10.2803C5.23532 10.421 5.42609 10.5 5.625 10.5ZM8.625 12H5.625C5.42609 12 5.23532 12.079 5.09467 12.2197C4.95402 12.3603 4.875 12.5511 4.875 12.75C4.875 12.9489 4.95402 13.1397 5.09467 13.2803C5.23532 13.421 5.42609 13.5 5.625 13.5H8.625C8.82391 13.5 9.01468 13.421 9.15533 13.2803C9.29598 13.1397 9.375 12.9489 9.375 12.75C9.375 12.5511 9.29598 12.3603 9.15533 12.2197C9.01468 12.079 8.82391 12 8.625 12ZM5.625 7.5H6.375C6.57391 7.5 6.76468 7.42098 6.90533 7.28033C7.04598 7.13968 7.125 6.94891 7.125 6.75C7.125 6.55109 7.04598 6.36032 6.90533 6.21967C6.76468 6.07902 6.57391 6 6.375 6H5.625C5.42609 6 5.23532 6.07902 5.09467 6.21967C4.95402 6.36032 4.875 6.55109 4.875 6.75C4.875 6.94891 4.95402 7.13968 5.09467 7.28033C5.23532 7.42098 5.42609 7.5 5.625 7.5ZM15.9075 12.2175C15.8378 12.1472 15.7548 12.0914 15.6634 12.0533C15.572 12.0153 15.474 11.9957 15.375 11.9957C15.276 11.9957 15.178 12.0153 15.0866 12.0533C14.9952 12.0914 14.9122 12.1472 14.8425 12.2175L12.375 14.6925L11.4075 13.7175C11.3376 13.6476 11.2546 13.5921 11.1632 13.5543C11.0718 13.5164 10.9739 13.4969 10.875 13.4969C10.7761 13.4969 10.6782 13.5164 10.5868 13.5543C10.4954 13.5921 10.4124 13.6476 10.3425 13.7175C10.2726 13.7874 10.2171 13.8704 10.1793 13.9618C10.1414 14.0532 10.1219 14.1511 10.1219 14.25C10.1219 14.3489 10.1414 14.4468 10.1793 14.5382C10.2171 14.6296 10.2726 14.7126 10.3425 14.7825L11.8425 16.2825C11.9122 16.3528 11.9952 16.4086 12.0866 16.4467C12.178 16.4847 12.276 16.5043 12.375 16.5043C12.474 16.5043 12.572 16.4847 12.6634 16.4467C12.7548 16.4086 12.8378 16.3528 12.9075 16.2825L15.9075 13.2825C15.9778 13.2128 16.0336 13.1298 16.0717 13.0384C16.1097 12.947 16.1293 12.849 16.1293 12.75C16.1293 12.651 16.1097 12.553 16.0717 12.4616C16.0336 12.3702 15.9778 12.2872 15.9075 12.2175Z" fill="#0066FF"/>
</svg>
