<svg width="16" height="16" viewBox="0 0 16 16" fill="none" xmlns="http://www.w3.org/2000/svg">
<path d="M15.0739 2.61759C15.0745 2.14332 14.9389 1.67953 14.6842 1.28497C14.4295 0.890423 14.0672 0.582871 13.6432 0.401286C13.2192 0.219701 12.7526 0.172256 12.3025 0.264961C11.8523 0.357667 11.439 0.586351 11.1148 0.922039L8.9997 3.10759L4.11475 1.42759C3.98469 1.38535 3.84597 1.38041 3.71341 1.41328C3.58084 1.44616 3.4594 1.51563 3.36206 1.61426L1.57067 3.44982C1.48578 3.53854 1.42281 3.64707 1.38704 3.76623C1.35128 3.8854 1.34379 4.0117 1.36519 4.13449C1.38659 4.25727 1.43627 4.37294 1.51002 4.47172C1.58377 4.5705 1.67944 4.64949 1.78895 4.70204L5.68787 6.52982L3.73088 8.55204L2.44378 7.88315C2.30482 7.80543 2.14571 7.77488 1.989 7.79582C1.83229 7.81676 1.68593 7.88813 1.57067 7.99982L0.238407 9.4076C0.0982186 9.55332 0.0195312 9.75045 0.0195312 9.95593C0.0195312 10.1614 0.0982186 10.3585 0.238407 10.5043L5.12335 15.552C5.26438 15.6969 5.45515 15.7782 5.654 15.7782C5.85285 15.7782 6.04362 15.6969 6.18464 15.552L7.54701 14.1754C7.65998 14.0598 7.73465 13.9103 7.76034 13.7483C7.78603 13.5862 7.76142 13.4199 7.69002 13.2732L7.04271 11.9432L8.9997 9.92093L10.7685 13.9498C10.8194 14.063 10.8958 14.1618 10.9914 14.238C11.087 14.3143 11.1989 14.3656 11.3178 14.3877C11.4366 14.4098 11.5588 14.4021 11.6741 14.3651C11.7895 14.3282 11.8945 14.2631 11.9803 14.1754L13.7567 12.3398C13.8521 12.2392 13.9194 12.1137 13.9512 11.9768C13.983 11.8398 13.9782 11.6964 13.9373 11.562L12.3115 6.51426L14.3965 4.31315C14.6127 4.09115 14.7839 3.82688 14.9002 3.53577C15.0165 3.24466 15.0756 2.93253 15.0739 2.61759ZM13.3277 3.21648L10.8889 5.73648C10.7935 5.83707 10.7263 5.96255 10.6945 6.09954C10.6626 6.23652 10.6674 6.37987 10.7083 6.51426L12.3341 11.5543L11.6567 12.2543L9.88787 8.23315C9.83767 8.11895 9.76148 8.01899 9.6658 7.94179C9.57013 7.86459 9.4578 7.81245 9.33841 7.78982C9.21803 7.76711 9.0941 7.77508 8.97738 7.81303C8.86065 7.85098 8.75463 7.91776 8.66851 8.0076L5.56744 11.2432C5.45611 11.3581 5.38243 11.5062 5.35678 11.6666C5.33113 11.8271 5.35479 11.9918 5.42443 12.1376L6.04163 13.4443L5.62013 13.8798L1.83411 9.95982L2.27819 9.55537L3.56529 10.2243C3.70641 10.2962 3.86581 10.3207 4.02108 10.2942C4.17634 10.2677 4.31966 10.1915 4.43088 10.0765L7.54701 6.84093C7.6335 6.75226 7.69786 6.64322 7.73457 6.52318C7.77128 6.40313 7.77925 6.27568 7.75778 6.15175C7.73631 6.02783 7.68605 5.91114 7.61132 5.81171C7.53659 5.71229 7.43961 5.63309 7.32873 5.58093L3.40722 3.75315L4.08464 3.05315L8.96206 4.73315C9.09212 4.77539 9.23084 4.78034 9.36341 4.74746C9.49598 4.71458 9.61741 4.64512 9.71475 4.54648L12.1535 2.02648C12.2285 1.94723 12.318 1.88426 12.4169 1.84127C12.5158 1.79827 12.622 1.77613 12.7293 1.77613C12.8365 1.77613 12.9427 1.79827 13.0416 1.84127C13.1405 1.88426 13.2301 1.94723 13.3051 2.02648C13.3836 2.10165 13.4457 2.19326 13.4872 2.29519C13.5287 2.39712 13.5488 2.50703 13.5459 2.61759C13.55 2.72741 13.5328 2.83697 13.4953 2.93982C13.4578 3.04267 13.4008 3.13673 13.3277 3.21648Z" fill="#0066FF"/>
</svg>
