<svg width="20" height="20" viewBox="0 0 20 20" fill="none" xmlns="http://www.w3.org/2000/svg">
<path d="M15.8346 5.83333H15.0013V5C15.0013 4.33696 14.7379 3.70107 14.2691 3.23223C13.8002 2.76339 13.1643 2.5 12.5013 2.5H4.16797C3.50493 2.5 2.86904 2.76339 2.4002 3.23223C1.93136 3.70107 1.66797 4.33696 1.66797 5V15C1.66797 15.663 1.93136 16.2989 2.4002 16.7678C2.86904 17.2366 3.50493 17.5 4.16797 17.5H15.8346C16.4977 17.5 17.1336 17.2366 17.6024 16.7678C18.0712 16.2989 18.3346 15.663 18.3346 15V8.33333C18.3346 7.67029 18.0712 7.03441 17.6024 6.56557C17.1336 6.09673 16.4977 5.83333 15.8346 5.83333ZM4.16797 4.16667H12.5013C12.7223 4.16667 12.9343 4.25446 13.0906 4.41074C13.2468 4.56702 13.3346 4.77899 13.3346 5V5.83333H4.16797C3.94696 5.83333 3.73499 5.74554 3.57871 5.58926C3.42243 5.43298 3.33464 5.22101 3.33464 5C3.33464 4.77899 3.42243 4.56702 3.57871 4.41074C3.73499 4.25446 3.94696 4.16667 4.16797 4.16667ZM16.668 12.5H15.8346C15.6136 12.5 15.4017 12.4122 15.2454 12.2559C15.0891 12.0996 15.0013 11.8877 15.0013 11.6667C15.0013 11.4457 15.0891 11.2337 15.2454 11.0774C15.4017 10.9211 15.6136 10.8333 15.8346 10.8333H16.668V12.5ZM16.668 9.16667H15.8346C15.1716 9.16667 14.5357 9.43006 14.0669 9.8989C13.598 10.3677 13.3346 11.0036 13.3346 11.6667C13.3346 12.3297 13.598 12.9656 14.0669 13.4344C14.5357 13.9033 15.1716 14.1667 15.8346 14.1667H16.668V15C16.668 15.221 16.5802 15.433 16.4239 15.5893C16.2676 15.7455 16.0556 15.8333 15.8346 15.8333H4.16797C3.94696 15.8333 3.73499 15.7455 3.57871 15.5893C3.42243 15.433 3.33464 15.221 3.33464 15V7.35833C3.60236 7.45251 3.88416 7.50042 4.16797 7.5H15.8346C16.0556 7.5 16.2676 7.5878 16.4239 7.74408C16.5802 7.90036 16.668 8.11232 16.668 8.33333V9.16667Z" fill="black"/>
</svg>
