<svg width="16" height="16" viewBox="0 0 16 16" fill="none" xmlns="http://www.w3.org/2000/svg">
<path d="M7.73828 15.4766C12.012 15.4766 15.4766 12.012 15.4766 7.73828C15.4766 3.46455 12.012 0 7.73828 0C3.46455 0 0 3.46455 0 7.73828C0 12.012 3.46455 15.4766 7.73828 15.4766Z" fill="#8247E5"/>
<path d="M10.2429 6.02996C10.0668 5.92936 9.84048 5.92936 9.63927 6.02996L8.23084 6.85993L7.27512 7.38809L5.89184 8.21806C5.71578 8.31866 5.48943 8.31866 5.28822 8.21806L4.20675 7.56415C4.03069 7.46354 3.90494 7.26234 3.90494 7.03598V5.77846C3.90494 5.57725 4.00554 5.37605 4.20675 5.25029L5.28822 4.62153C5.46428 4.52093 5.69063 4.52093 5.89184 4.62153L6.97331 5.27544C7.14936 5.37605 7.27512 5.57725 7.27512 5.80361V6.63358L8.23084 6.08026V5.22514C8.23084 5.02394 8.13024 4.82273 7.92903 4.69698L5.91699 3.5149C5.74093 3.4143 5.51458 3.4143 5.31337 3.5149L3.25103 4.72213C3.04982 4.82273 2.94922 5.02394 2.94922 5.22514V7.5893C2.94922 7.7905 3.04982 7.99171 3.25103 8.11746L5.28822 9.29954C5.46428 9.40014 5.69063 9.40014 5.89184 9.29954L7.27512 8.49472L8.23084 7.9414L9.61412 7.13659C9.79017 7.03598 10.0165 7.03598 10.2177 7.13659L11.2992 7.76535C11.4753 7.86595 11.601 8.06716 11.601 8.29351V9.55104C11.601 9.75225 11.5004 9.95345 11.2992 10.0792L10.2429 10.708C10.0668 10.8086 9.84048 10.8086 9.63927 10.708L8.5578 10.0792C8.38174 9.9786 8.25599 9.7774 8.25599 9.55104V8.74622L7.30027 9.29954V10.1295C7.30027 10.3307 7.40087 10.5319 7.60207 10.6577L9.63927 11.8397C9.81532 11.9403 10.0417 11.9403 10.2429 11.8397L12.2801 10.6577C12.4561 10.5571 12.5819 10.3559 12.5819 10.1295V7.7402C12.5819 7.539 12.4813 7.33779 12.2801 7.21204L10.2429 6.02996Z" fill="white"/>
</svg>
