<svg width="17" height="18" viewBox="0 0 17 18" fill="none" xmlns="http://www.w3.org/2000/svg">
<path d="M-nan -nanL14.3522 16.9927C15.3457 16.9927 16.1539 16.1845 16.1539 15.191V12.7888C16.1539 12.5301 15.9885 12.3008 15.7433 12.2193L12.1484 11.0181C11.9724 10.9589 11.78 10.9858 11.6252 11.0879L10.5473 11.8064C10.2679 11.9926 9.90889 12.0221 9.61967 11.8516C8.27807 11.0608 6.83138 9.61405 6.04055 8.27245C5.87006 7.98322 5.89953 7.6242 6.08573 7.34483L6.80421 6.26689C6.90683 6.11263 6.93265 5.91968 6.874 5.74376L5.67286 2.14879C5.59138 1.90368 5.36204 1.73828 5.1034 1.73828H2.66108C1.66758 1.73828 0.859375 2.53804 0.859375 3.53154C0.859375 10.451 7.43272 16.9927 14.3522 16.9927L-nan -nanL-nan -nanZ" stroke="#10101C" stroke-width="1.52545"/>
</svg>
