<svg width="18" height="18" viewBox="0 0 18 18" fill="none" xmlns="http://www.w3.org/2000/svg">
<path d="M9.0013 6.49935C8.83648 6.49935 8.67537 6.54822 8.53833 6.63979C8.40129 6.73136 8.29448 6.86151 8.2314 7.01378C8.16833 7.16605 8.15183 7.33361 8.18398 7.49526C8.21614 7.65691 8.2955 7.80539 8.41205 7.92194C8.52859 8.03848 8.67708 8.11785 8.83873 8.15C9.00038 8.18216 9.16793 8.16566 9.32021 8.10258C9.47248 8.03951 9.60263 7.9327 9.69419 7.79566C9.78576 7.65862 9.83464 7.4975 9.83464 7.33268C9.83464 7.11167 9.74684 6.89971 9.59056 6.74343C9.43428 6.58715 9.22232 6.49935 9.0013 6.49935ZM14.8346 0.666016H3.16797C2.50493 0.666016 1.86904 0.929408 1.4002 1.39825C0.931361 1.86709 0.667969 2.50297 0.667969 3.16602V11.4993C0.667969 12.1624 0.931361 12.7983 1.4002 13.2671C1.86904 13.736 2.50493 13.9993 3.16797 13.9993H12.8263L15.9096 17.091C15.9875 17.1682 16.0798 17.2294 16.1814 17.2708C16.2829 17.3123 16.3916 17.3333 16.5013 17.3327C16.6106 17.3355 16.7191 17.3127 16.818 17.266C16.9701 17.2035 17.1004 17.0973 17.1924 16.9609C17.2843 16.8245 17.3338 16.6639 17.3346 16.4993V3.16602C17.3346 2.50297 17.0712 1.86709 16.6024 1.39825C16.1336 0.929408 15.4977 0.666016 14.8346 0.666016ZM15.668 14.491L13.7596 12.5743C13.6818 12.4971 13.5894 12.436 13.4879 12.3945C13.3864 12.3531 13.2776 12.332 13.168 12.3327H3.16797C2.94695 12.3327 2.73499 12.2449 2.57871 12.0886C2.42243 11.9323 2.33464 11.7204 2.33464 11.4993V3.16602C2.33464 2.945 2.42243 2.73304 2.57871 2.57676C2.73499 2.42048 2.94695 2.33268 3.16797 2.33268H14.8346C15.0556 2.33268 15.2676 2.42048 15.4239 2.57676C15.5802 2.73304 15.668 2.945 15.668 3.16602V14.491ZM5.66797 6.49935C5.50315 6.49935 5.34203 6.54822 5.20499 6.63979C5.06795 6.73136 4.96114 6.86151 4.89807 7.01378C4.835 7.16605 4.81849 7.33361 4.85065 7.49526C4.8828 7.65691 4.96217 7.80539 5.07871 7.92194C5.19526 8.03848 5.34374 8.11785 5.50539 8.15C5.66704 8.18216 5.8346 8.16566 5.98687 8.10258C6.13914 8.03951 6.26929 7.9327 6.36086 7.79566C6.45243 7.65862 6.5013 7.4975 6.5013 7.33268C6.5013 7.11167 6.41351 6.89971 6.25722 6.74343C6.10094 6.58715 5.88898 6.49935 5.66797 6.49935ZM12.3346 6.49935C12.1698 6.49935 12.0087 6.54822 11.8717 6.63979C11.7346 6.73136 11.6278 6.86151 11.5647 7.01378C11.5017 7.16605 11.4852 7.33361 11.5173 7.49526C11.5495 7.65691 11.6288 7.80539 11.7454 7.92194C11.8619 8.03848 12.0104 8.11785 12.1721 8.15C12.3337 8.18216 12.5013 8.16566 12.6535 8.10258C12.8058 8.03951 12.936 7.9327 13.0275 7.79566C13.1191 7.65862 13.168 7.4975 13.168 7.33268C13.168 7.11167 13.0802 6.89971 12.9239 6.74343C12.7676 6.58715 12.5556 6.49935 12.3346 6.49935Z" fill="black"/>
</svg>
