<svg width="18" height="16" viewBox="0 0 18 16" fill="none" xmlns="http://www.w3.org/2000/svg">
<path d="M15.7996 2.16746C14.9162 1.2818 13.7453 0.741239 12.4982 0.643431C11.2511 0.545622 10.0102 0.89701 8.99958 1.63412C7.93929 0.845487 6.61957 0.487882 5.30618 0.63332C3.99279 0.778758 2.78328 1.41644 1.92122 2.41794C1.05917 3.41945 0.608597 4.71039 0.660246 6.0308C0.711895 7.35121 1.26193 8.60301 2.19958 9.53412L7.37458 14.7175C7.80793 15.1439 8.39157 15.383 8.99958 15.383C9.60759 15.383 10.1912 15.1439 10.6246 14.7175L15.7996 9.53412C16.7726 8.55518 17.3187 7.23102 17.3187 5.85079C17.3187 4.47056 16.7726 3.1464 15.7996 2.16746V2.16746ZM14.6246 8.38412L9.44958 13.5591C9.39069 13.6186 9.3206 13.6658 9.24336 13.698C9.16612 13.7302 9.08327 13.7468 8.99958 13.7468C8.91589 13.7468 8.83303 13.7302 8.7558 13.698C8.67856 13.6658 8.60847 13.6186 8.54958 13.5591L3.37458 8.35912C2.72104 7.69108 2.35509 6.79368 2.35509 5.85912C2.35509 4.92457 2.72104 4.02717 3.37458 3.35912C4.04054 2.70161 4.93872 2.33293 5.87458 2.33293C6.81043 2.33293 7.70862 2.70161 8.37458 3.35912C8.45205 3.43723 8.54422 3.49922 8.64577 3.54153C8.74731 3.58384 8.85624 3.60562 8.96625 3.60562C9.07626 3.60562 9.18518 3.58384 9.28673 3.54153C9.38828 3.49922 9.48044 3.43723 9.55791 3.35912C10.2239 2.70161 11.1221 2.33293 12.0579 2.33293C12.9938 2.33293 13.8919 2.70161 14.5579 3.35912C15.2204 4.01841 15.5984 4.91095 15.6109 5.84553C15.6233 6.78011 15.2693 7.6824 14.6246 8.35912V8.38412Z" fill="black"/>
</svg>
