<svg width="20" height="20" viewBox="0 0 20 20" fill="none" xmlns="http://www.w3.org/2000/svg">
<path d="M16.7996 4.16746C15.9162 3.2818 14.7453 2.74124 13.4982 2.64343C12.2511 2.54562 11.0102 2.89701 9.99958 3.63412C8.93929 2.84549 7.61957 2.48788 6.30618 2.63332C4.99279 2.77876 3.78328 3.41644 2.92122 4.41794C2.05917 5.41945 1.6086 6.71039 1.66025 8.0308C1.7119 9.35121 2.26193 10.603 3.19958 11.5341L8.37458 16.7175C8.80793 17.1439 9.39157 17.383 9.99958 17.383C10.6076 17.383 11.1912 17.1439 11.6246 16.7175L16.7996 11.5341C17.7726 10.5552 18.3187 9.23102 18.3187 7.85079C18.3187 6.47056 17.7726 5.1464 16.7996 4.16746ZM15.6246 10.3841L10.4496 15.5591C10.3907 15.6186 10.3206 15.6658 10.2434 15.698C10.1661 15.7302 10.0833 15.7468 9.99958 15.7468C9.91589 15.7468 9.83303 15.7302 9.7558 15.698C9.67856 15.6658 9.60847 15.6186 9.54958 15.5591L4.37458 10.3591C3.72104 9.69108 3.35509 8.79368 3.35509 7.85912C3.35509 6.92457 3.72104 6.02717 4.37458 5.35912C5.04054 4.70161 5.93872 4.33293 6.87458 4.33293C7.81043 4.33293 8.70862 4.70161 9.37458 5.35912C9.45205 5.43723 9.54422 5.49922 9.64576 5.54153C9.74731 5.58384 9.85624 5.60562 9.96625 5.60562C10.0763 5.60562 10.1852 5.58384 10.2867 5.54153C10.3883 5.49922 10.4804 5.43723 10.5579 5.35912C11.2239 4.70161 12.1221 4.33293 13.0579 4.33293C13.9938 4.33293 14.8919 4.70161 15.5579 5.35912C16.2204 6.01841 16.5984 6.91095 16.6109 7.84553C16.6233 8.78011 16.2693 9.6824 15.6246 10.3591V10.3841Z" fill="white"/>
</svg>
